<?xml version="1.0" encoding="utf-8"?>
<!-- Generator: Adobe Illustrator 26.5.0, SVG Export Plug-In . SVG Version: 6.00 Build 0)  -->
<svg version="1.1" id="Layer_1" xmlns="http://www.w3.org/2000/svg" xmlns:xlink="http://www.w3.org/1999/xlink" x="0px" y="0px"
	 viewBox="0 0 1024 1024" style="enable-background:new 0 0 1024 1024;" xml:space="preserve">
<style type="text/css">
	.st0{fill:#FFFFFF;}
	.st1{fill:#74704C;}
</style>
<path class="st0" d="M236,89.2c-44.5,4.6-86.7,28.3-114.2,64.1c-12.4,16.2-21.6,33.7-26.7,50.7c-1.2,4.1-2.6,8.6-3.1,10
	c-0.5,1.4-1.2,4.3-1.6,6.5c-0.3,2.2-1.2,7.6-1.9,12c-1,6.4-1.3,61.4-1.4,279.5c0,159.5,0.4,273.4,0.9,276c0.5,2.5,1.7,8.3,2.6,13
	c10.5,53.5,50,100.5,101.5,121.1c8,3.2,21.9,7.3,28.4,8.4c2.2,0.4,7.2,1.3,12,2.2c4.8,0.9,543.2,1.1,551,0.2
	c31.4-3.7,59.4-15.1,84.5-34.2c6.9-5.3,23.9-21.9,28-27.5c1.4-1.9,3.4-4.6,4.6-6c13.1-17,26-47.1,29.1-67.7c0.2-1.7,0.6-3.6,0.8-4.3
	c0.3-0.7,0.8-5,1.2-9.5c1-11.1,0.9-537.4-0.1-546.2c-0.6-6-2.1-14.3-4-23.4c-1.7-7.7-7-21.9-12.3-32.6c-4.7-9.5-10.3-18.8-11.5-19.3
	c-0.5-0.2-0.8-0.8-0.8-1.3c0-0.6-2.6-4.2-5.7-8.2c-21.3-26.8-47.8-45.5-79.8-56.2c-6-2.1-19.4-5.3-25-6.1c-2.7-0.3-5.9-0.9-7-1.2
	C782.3,88.4,244.2,88.3,236,89.2z"/>
<path class="st1" d="M449.3,283.5l-3.3-55.4h-61.9l-3.3,55.4H449.3z M243.9,255.8l-32.6,495.4h-52.1v44h705.6v-44H811V578.5
	l-228.1-71.7l-117.3,27.7l-14.7-228.1h-73.3l-16.3,252.6l-26.1,4.9l-19.6-309.6L243.9,255.8z M314,234.6l-3.3-53.8h-61.9l-3.3,53.8
	H314z M301,751.2V599.6L563.3,541v210.2H301z M786.6,749.6l-52.1,1.6v-73.3l-65.2-11.4v84.7h-66.8V545.9l185.8,55.4L786.6,749.6z"/>
</svg>
