<?xml version="1.0" encoding="utf-8"?>
<!-- Generator: Adobe Illustrator 26.5.0, SVG Export Plug-In . SVG Version: 6.00 Build 0)  -->
<svg version="1.1" id="Layer_1" xmlns="http://www.w3.org/2000/svg" xmlns:xlink="http://www.w3.org/1999/xlink" x="0px" y="0px"
	 viewBox="0 0 1024 1024" style="enable-background:new 0 0 1024 1024;" xml:space="preserve">
<style type="text/css">
	.st0{fill:#FFFFFF;}
	.st1{fill:#74704C;}
</style>
<path class="st0" d="M180.4,0.8C126.5,6.3,75.3,35.1,42,78.5c-15,19.6-26.2,40.8-32.3,61.4c-1.5,5-3.1,10.4-3.8,12.1
	s-1.5,5.2-1.9,7.9c-0.4,2.7-1.5,9.2-2.3,14.5c-1.2,7.8-1.6,74.4-1.7,338.7c0,193.3,0.5,331.3,1.1,334.5c0.6,3,2.1,10.1,3.1,15.8
	c12.7,64.8,60.6,121.8,123,146.8c9.7,3.9,26.5,8.8,34.4,10.2c2.7,0.5,8.7,1.6,14.5,2.7s658,1.3,667.5,0.2c38-4.5,72-18.3,102.4-41.4
	c8.4-6.4,29-26.5,33.9-33.3c1.7-2.3,4.1-5.6,5.6-7.3c15.9-20.6,31.5-57.1,35.3-82c0.2-2.1,0.7-4.4,1-5.2c0.4-0.8,1-6.1,1.5-11.5
	c1.2-13.5,1.1-651.3-0.1-662c-0.7-7.3-2.5-17.3-4.8-28.4c-2.1-9.3-8.5-26.5-14.9-39.5c-5.7-11.5-12.5-22.8-13.9-23.4
	c-0.6-0.2-1-1-1-1.6c0-0.7-3.1-5.1-6.9-9.9c-25.8-32.5-57.9-55.1-96.7-68.1c-7.3-2.5-23.5-6.4-30.3-7.4c-3.3-0.4-7.1-1.1-8.5-1.5
	C842.2-0.2,190.3-0.3,180.4,0.8z"/>
<path class="st1" d="M438.7,236.3l-3.9-67.1h-75l-3.9,67.1H438.7z M190,202.7l-39.5,600.4H87.4v53.3h854.7v-53.3h-65.1V593.7
	l-276.4-86.9l-142.1,33.6l-17.8-276.5h-88.8L332.1,570l-31.6,5.9l-23.7-375.2L190,202.7z M274.9,177l-3.9-65.2h-75L192,177H274.9z
	 M259.1,803.1V619.4l317.8-71.1v254.8H259.1z M847.3,801.1l-63.2,2v-88.9l-79-13.8v102.7h-80.9V554.2l225,67.1L847.3,801.1z"/>
</svg>
