<svg height="1024pt" preserveAspectRatio="xMidYMid meet" viewBox="0 0 1024 1024" width="1024pt" xmlns="http://www.w3.org/2000/svg"><path d="m2360 9348c-445-46-867-283-1142-641-124-162-216-337-267-507-12-41-26-86-31-100s-12-43-16-65c-3-22-12-76-19-120-10-64-13-614-14-2795 0-1595 4-2734 9-2760 5-25 17-83 26-130 105-535 500-1005 1015-1211 80-32 219-73 284-84 22-4 72-13 120-22s5432-11 5510-2c314 37 594 151 845 342 69 53 239 219 280 275 14 19 34 46 46 60 131 170 260 471 291 677 2 17 6 36 8 43 3 7 8 50 12 95 10 111 9 5374-1 5462-6 60-21 143-40 234-17 77-70 219-123 326-47 95-103 188-115 193-5 2-8 8-8 13 0 6-26 42-57 82-213 268-478 455-798 562-60 21-194 53-250 61-27 3-59 9-70 12-32 8-5413 9-5495 0z" transform="matrix(.1 0 0 -.1 0 1024)"/></svg>