<svg enable-background="new 0 0 110 60" viewBox="0 0 110 60" xmlns="http://www.w3.org/2000/svg"><g fill="#74704c"><path d="m50.1 7.6-.2-3.4h-3.8l-.2 3.4zm-12.6-1.7-2 30.4h-3.2v2.7h43.3v-2.7h-3.3v-10.6l-14-4.4-7.2 1.7-.9-14h-4.5l-1 15.5-1.6.3-1.2-19zm4.3-1.3-.2-3.3h-3.8l-.2 3.3zm-.8 31.7v-9.3l16.1-3.6v12.9zm29.8-.1-3.2.1v-4.5l-4-.7v5.2h-4.1v-12.6l11.4 3.4z"/><path d="m.8 46.7h9.2v2.4h-6.5v2.6h5.7v2.4h-5.7v4.6h-2.7z"/><path d="m19.3 46.6h2.4l5.2 12.1h-2.8l-1-2.7h-5.1l-1.1 2.7h-2.7zm2.8 7.1-1.6-3.9-1.6 3.9z"/><path d="m32.5 46.7h2.6v5.3l4.9-5.3h3.2l-4.9 5.1 5.1 6.9h-3.1l-3.8-5.1-1.4 1.5v3.6h-2.6z"/><path d="m51.5 49.1h-3.7v-2.4h10v2.4h-3.7v9.6h-2.6z"/><path d="m63.1 52.6c0-3.5 2.7-6.3 6.4-6.3s6.4 2.8 6.4 6.2c0 3.4-2.7 6.2-6.4 6.2s-6.4-2.7-6.4-6.1m10 0c0-2.1-1.5-3.8-3.6-3.8s-3.6 1.7-3.6 3.7c0 2.1 1.5 3.8 3.7 3.8 2 0 3.5-1.7 3.5-3.7"/><path d="m82.7 46.7h5.5c1.5 0 2.7.4 3.5 1.2.7.7 1 1.6 1 2.8 0 1.9-1.1 3.2-2.6 3.7l2.9 4.3h-3l-2.6-3.9h-2.1v3.9h-2.6zm5.3 5.9c1.3 0 2-.7 2-1.7 0-1.1-.8-1.7-2.1-1.7h-2.6v3.5h2.7z"/><path d="m101.9 54-4.6-7.3h3.1l2.8 4.8 3-4.8h3l-4.7 7.2v4.8h-2.6z"/></g></svg>