<svg enable-background="new 0 0 270 150" viewBox="0 0 270 150" xmlns="http://www.w3.org/2000/svg"><g fill="#a2a09e"><path d="m123.2 21.7-.6-8.1h-9l-.6 8.1zm-29.9-4.1-4.8 72h-7.5v6.4h102.4v-6.4h-7.8v-25.1l-33-10.5-17.1 4-2.1-33.2h-10.6l-2.3 36.6-3.8.8-2.8-44.6zm10.3-3-.5-7.9h-9l-.5 7.9zm-1.8 75v-22l38.1-8.5v30.5zm70.4-.2-7.5.2v-10.7l-9.6-1.7v12.4h-9.7v-29.8l26.9 8z"/><path d="m6.6 114.3h21.7v5.7h-15.4v6h13.6v5.8h-13.6v11h-6.3z"/><path d="m50.4 114.1h5.8l12.2 28.7h-6.5l-2.6-6.4h-12l-2.6 6.4h-6.4zm6.6 16.8-3.8-9.2-3.8 9.2z"/><path d="m81.5 114.3h6.3v12.4l11.6-12.4h7.6l-11.6 12.1 12.1 16.4h-7.5l-8.9-12.1-3.3 3.4v8.7h-6.3z"/><path d="m126.5 120.1h-8.7v-5.8h23.6v5.8h-8.7v22.7h-6.2z"/><path d="m154.3 128.6c0-8.2 6.4-14.8 15.2-14.8s15.1 6.5 15.1 14.7v.1c0 8.1-6.4 14.7-15.2 14.7s-15.1-6.6-15.1-14.7m23.8 0c0-5-3.6-9-8.6-9s-8.6 4-8.6 8.9v.1c0 4.9 3.6 9 8.6 9s8.6-4.1 8.6-9"/><path d="m200.8 114.3h13c3.6 0 6.4 1 8.3 2.9 1.6 1.6 2.4 3.8 2.4 6.5v.1c0 4.6-2.5 7.5-6.1 8.8l7 10.2h-7.3l-6.1-9.1h-5v9.1h-6.3v-28.5zm12.6 13.8c3.1 0 4.8-1.6 4.8-4v-.1c0-2.7-1.9-4.1-4.9-4.1h-6.3v8.2z"/><path d="m246.2 131.5-11-17.2h7.4l6.7 11.4 7-11.4h7.1l-10.9 17.1v11.4h-6.3z"/></g></svg>