<svg viewBox="0 0 50 50" xmlns="http://www.w3.org/2000/svg"><g fill="#a2a09e"><path d="m13.23 20.98h5.7v15.93h-5.7z"/><path d="m21.87 21h4.4v2.21s.67-2.21 4.73-2.21c3.36 0 5.76 1.31 5.76 4.9v11h-4.7s0-9.29 0-9.58a2.63 2.63 0 0 0 -2.65-2.63 2.9 2.9 0 0 0 -3.15 3v9.19h-4.39z"/><path d="m18.93 15.94a2.85 2.85 0 1 1 -2.85-2.84 2.85 2.85 0 0 1 2.85 2.84"/><path d="m43.88 50h-37.76a6.12 6.12 0 0 1 -6.12-6.12v-37.75a6.13 6.13 0 0 1 6.12-6.13h37.76a6.13 6.13 0 0 1 6.12 6.13v37.75a6.13 6.13 0 0 1 -6.12 6.12m-37.76-47.89a4 4 0 0 0 -4 4v37.77a4 4 0 0 0 4 4h37.76a4 4 0 0 0 4-4v-37.75a4 4 0 0 0 -4-4z"/></g></svg>