<svg enable-background="new 0 0 913.2 572" viewBox="0 0 913.2 572" xmlns="http://www.w3.org/2000/svg"><g stroke="#fff" stroke-miterlimit="10" stroke-width=".5"><g fill="#d6d9d7"><path d="m584.6 463.2c0-.3 0-.6-.1-1-.1-.5-.2-.5-.7-.8-.4-.2-1-.6-1.5-1.4-.7-1.1-.8-1.9-.9-2.7 0-.4-.1-.7-.2-1.1-.3-1.2-.1-1.7.3-2.3.1-.2.2-.3.2-.5.2-.5.3-1.5.4-2.3-4.3.2-27.1 1.3-29.7 1.7-2.9.5-4-1.1-4.3-2.4 0-.1-.1-.3-.2-.5-.3-.7-.7-1.6-.6-2.7.1-.7.4-1.4.7-1.9s.5-.9.5-1.3c-.1-.6-.1-.8-.1-1.1 0-.2 0-.5 0-1.2 0-1.8 1-2.8 2.6-2.8 0-.2-.1-.6-.2-.9-.1-.5-.3-1.1-.3-1.6 0-1.5 1.4-2.4 2.3-3.1.1-.1.2-.1.3-.2.4-.3.6-.7.9-1.2.1-.3.3-.6.5-.9.3-.5.7-.7 1-.9.6-.3 1-.6 1-1.9 0-1-.3-1.1-.7-1.2-.3-.1-.7-.1-.9-.5-.1-.2-.2-.5-.1-.9.3-.9 1.3-1.3 2.3-1.7.5-.2 1.2-.5 1.3-.7s.1-.4.1-.8c-.1-.6-.5-1.2-.8-1.4-1-.6-1.8-1.9-2.3-2.8-.3-.6-.4-1.2-.5-1.8s-.2-1.2-.5-2c-.6-1.3-.6-3.7-.6-4.9l-52.1.9v7.2s.1 1.1.7 1.3c.7.2 1.2.8.9 6.9-.1 2.4-.3 4.8-.4 5.8.6.5 1.9 1.7 3.4 4.6 1 1.9.5 3 .1 3.7-.2.5-.3.6-.2.9.3.5 1.1 1.3 2.7 2.4l.2.1.1.2s.8 2 2.6 6.1c1.2 2.8.9 6.8-1 12l-.1.2c0 .1-.1.3-.2.4-.5 1.4-1.9 5-1 7.4.5 1.2.3 3-.4 5.3 0 1-.2 3.3-.3 4.3-.1 1.4 4.1.4 6.5-.3s3.8.3 4.7.8c.9.6 3.1.3 4.4 1.6s4.6 2 5.5 2.2 1-.2 2.6-.2 5.4.1 6.4.2c1 0-.5-2.5-.8-2.8-.4-.3-.3-.8.2-1.3.5-.4 1.9-.6 2.7-.7s3.7-1.7 5.5.3 4.6 2.3 4.6 2.3 1 2.2 3.3 2.1c2.2-.1 3.9 2.6 4.3 3.2.3.6 4.4.5 5 .8s.4 1.6 2.1 2.2c1.8.6-.2 1.6 0 1.9s1.7.9 2.1-.9-.2-1.9.6-2.8 2-.2 3-.3 3.9-.7 4.2.1.8.1 1 1.7 1.8 1.8 2.1 1.2-.6-2.1-.8-2.7 1.1 1.2 1.1-1-.7-2.9-1.7-3.5-.6-2.6 1.7-1.4 3.6 1 4.4 1c.8-.1.6-.2.9 1s2.1 2.2 3.3 2.1.9.3 1.4 1 1.8.3 2.9 1.2c1.2.9 1.9.8 2.7 1.3.8.6 1.3 1.2 2 1.3s-.6.7-.3.9c.4.3 1.3 1.6 1.2.2s.2-1.8-.2-3.5-1.3-2.1-3.3-2.2-3-.5-3.7-1.3-1.5-.7-2.6-1.7-1-.6-1.6-1.6c-.7-1-1.5-1.1-1.4-1.8.1-.8.6-.7.9-1s.1-.3.3-1.4c.2-1.2 4.3-.6 4.3-1.8s2.3-7.4-4.1-1.4c0 0-4.5-1.7-4.4-3.5.1-1.7-1.3-.9-2.1.7-.9 1.6-6.3 1.4-7.3.4-1.1-1-2-1.4-1.2-2.9.8-1.4.6-2.2 1.4-2.8s1.2-.6 2-1.6c.8-1.1 3.3-1.4 4-.8s.4 1.7 1.1 2c.7.4 1.7.3 2.4.3s2.1-.5 2.5.4-.5 1.1.6.9h.9c-.1-.7-.3-1.4-.6-1.7-.9-1-.9-1.6-.9-2.4z"/><path d="m604.3 428.6c0-.6 1-62.4 1-63s.5-1 .9-1.3c-.3-.2-.7-.5-.9-1.2s-.7-.9-.8-.9l-36 1.7c-.1.4-.2.9-.3 1.4-.1.9-.3 1.9-1.1 2-.3 0-.5 0-.7 0-.4-.1-.7-.1-1.3.4-.7.6-.7 1-.6 2v.9c0 1.8-1 4.8-1.5 6-.5 1.3-.9 1.8-2.2 2.6-1 .6-2.2 1.3-2.4 2.6-.1.3-.1.7-.2 1.2-.4 2.3-.8 4.6-2.2 4.7-.2.2-.3.8-.2 2.9v.6c0 .5-.4 1-1 1.8-.8 1.1-1.9 2.5-1.9 3.8 0 1.1.1 1.2.3 1.4s.5.5.8 1.3c1 2.1 1.9 4.5 1.1 6.1-.5.9-.4 2.6-.3 3.2l.1.7h-.1c0 1.2.1 3.4.5 4.4.4.9.5 1.7.6 2.3.1.5.1 1 .3 1.4.6 1.1 1.2 2 1.8 2.3.6.4 1.2 1.3 1.4 2.2.1.7 0 1.3-.3 1.8-.4.5-1.1.8-1.9 1.1-.4.2-1.1.4-1.4.7.6.1 1.6.5 1.6 2.4 0 2.1-1 2.7-1.6 3-.3.2-.5.3-.5.4-.2.3-.3.5-.4.8-.3.6-.5 1.2-1.3 1.7-.1.1-.2.1-.3.2-.7.5-1.7 1.2-1.7 2 0 .4.1.8.3 1.3.2.8.4 1.5 0 2.1-.1.2-.4.4-.9.4-1 0-1.5.5-1.5 1.6 0 .7 0 1.1-.1 1.3v.8c.1.7-.2 1.4-.6 2-.3.5-.5 1-.6 1.5-.1.8.2 1.5.5 2.1.1.3.2.5.3.7.2.6.5 1.9 2.9 1.5 3-.5 29.5-1.7 30.6-1.7h.7v.7c0 .2-.2 2.5-.5 3.4-.1.3-.2.5-.3.7-.2.4-.3.6-.1 1.4.1.5.1.9.2 1.3.1.7.1 1.3.7 2.2.4.6.7.8 1.1 1 .5.3 1.1.6 1.3 1.7.1.5.1.8.1 1.1 0 .7.1 1 .5 1.6.5.6.7 1.6.8 2.5.6 0 1.2-.1 1.7-.2 1.1-.4 1.8-.2 1.8-1.4s-1.1-2.2.2-2.6c1.3-.3 7.7.8 7.9 0s3.2-1 4.2-.7c.9.2 4 .1 5.4-.2z"/><path d="m508.3 469.9c-1.1-2.8.4-6.7 1-8.3.1-.2.1-.3.1-.4l.1-.2c2.2-6.1 1.8-9.4 1.1-11.1-1.5-3.4-2.3-5.4-2.6-5.9-3.4-2.3-3.6-3.3-2.8-4.8.3-.6.6-1.2-.1-2.5-1.9-3.6-3.2-4.3-3.2-4.3l-.4-.2.1-.4c.5-5 .7-10.7.3-11.8-1.1-.4-1.4-1.7-1.5-2.4v-19.2h-6.8v-.7c0-.2 0-.4-.1-.5s-.3-.1-.4-.1-.3 0-.6 0c-.6 0-1.6-.1-2.2-1-.4-.4-3.5-2.1-5.4-3.1-2.6-1.3-3.6-1.9-3.8-2.2-.2-.2-.4-.4-.9-.4s-1.2.3-1.9 1c-1.1 1.1-2.2 1.2-2.9 1.1-1.1-.1-1.8-.8-2.2-1.4-.3 0-1.2.3-1.7.5-.7.3-1.4.5-2 .6s-1.2.1-1.9 0c-1 0-2.1-.1-3.2.4-.7.3-.8.7-1 1.1s-.4 1.1-1.5 1.1h-.2c-1.4 0-2.9 0-5.1-1.5-.8-.5-1.2-.9-1.4-1.2-.4-.4-.5-.5-2.2-.3-2.6.2-3.1-.3-3.8-1.5-.1-.2-.2-.4-.4-.6-.3.1-.8.7-1.5 1.8-.3.4-.4.6-.5.7-.3.2-1.9 1-3.1.5-.4-.2-.9-.6-1-1.4-.2 0-.4.1-.6.2-1.2.4-3.2 1.2-4.9-.9-.6-.7-1.1-1.1-1.6-1.1-.6 0-1.1.5-1.7 1-.3.3-.7.6-1 .8-.5.2-1 .2-1.5 0-1.1-.4-1.9-1.7-2.3-2.7-.1-.3-.2-.5-.3-.8-.2-.8-.3-1.1-1.9-1.7-1.7-.7-3.5.2-4.3.7-.1.1-.2.1-.3.2-.5.3-1.2.3-1.8.1s-1-.6-1.3-1.2c-.2-.4-2.3-.9-4.3-.8-1.1.1-1.6-.2-2.1-.4-.3-.2-.7-.3-1.3-.5-.7-.2-1.5-.2-2.2-.2-1-.1-1.7-.1-2-.5s-.3-1-.1-2.4c0-.3.1-.7.1-.9-.1-.1-.1-.2-.2-.3-.3-.5-1.2-1.7-1.9-1.5-.4.1-.8.3-1.2.6-.9.5-2 1.2-3.6.7-1.6-.4-2.9-1.8-3.9-2.9-.3-.4-.6-.7-.9-.9-.2-.2-.6-.3-.9-.5-.8-.4-1.9-.9-1.7-2.3.1-1 .1-6.4.1-9.1l1.3-24.1v-6c-5.6-.4-44.7-2.9-51.2-3.6l-8.3 96.6-66.3-4.9-.3 2.9h.2s5 .3 5.2 6.4c.1 6.1 13.9 10.2 24.7 25.4 0 0 1.2 1.8 2.1 12.4.8 10.5 25 23.9 27.1 23.6s2.5-2.8 5.7-6.8 1-7.4 8.2-9.9 7.1-1 9.4 0c2.4 1 10.3 1.7 10.3 1.7s13.6 10.5 16.4 21.4c2.8 10.8 16.2 27.6 18 28s2.1 13.3 2.2 13.7 4 5.7 6.2 12.8c0 0 2.4 2.1 7.2 1.8s5.6 2.3 6.1 3c.5.6 3.1 3.5 4.4 3.6s4.8-.1 6.5 0c1.6.1 4.4.4 5.3 1.7s2.3 2.6 4.4 2.3c2-.2 2.8-1.2 3.3-1.6s-2.2-3-2.7-5-1.1-4-1.1-4-1.6-1.6-1.6-2.4-.2-1.3.4-1.3.8-2.5 0-3-1.2-2-1.7-3.6c-.5-1.7-.5-4.1.5-4.1s2.2-3.8.9-3.8-3.9-.5-4.4-1.2-1.2-1.8-.5-1.8.5-1.5 0-1.8 1.3-.6 1.3-.6.1.6.7.6 1.9 1 2 .3.2-2.4 1.1-1.9c.9.6.6 2.4 1.2 2.4s.9-2 .9-2 1.3.8.8-1.4.2-3.1-.4-4.1-.3-1-1.7-1.9-2.2-2.6-1.4-2.6 5.6-.5 5.8.4c.1.9 1.3.8 1.3.8s.4-.6 1.1-1.7 2.9-2.4 1.4-2.4-3.5 1.6-4.4 1.1-.4-1.6.2-1.6 1.1-.7 1.9-2 2.5-1.4 2.9-1.4 1 .1 1.3.1 2.4.4 2.4-.4.5-3 0-3.8.7-2.2 1.2-1.6 1.4.2 1.4.8 1.3.8 1.3.8.8.7 1.4.2.8-.2.6-1.8-1.4-3.2-2.4-3.8-.5-.4.2-1.1c.6-.7.2-1.1 1-1.1s.8-2.6 1.4-2 .1 3.4.6 3.8 1.7 0 1.4-1.1c-.3-1.2.8-1.3 1.2-.8.4.4 0 2.5.7 2.5.8 0 .7-.4 1.3-1.3.5-.9.9-.7 1.9-1.5s1.5 1.8.7 2c-.8.1-1.7.7-.8.7.8 0 .8.7 2.6.2s1.4-2 2.2-2 2-.4 2.5-.9 1.8-.1 2.8-.1 2.3-1.4 3.5-1.9 4.4-2.9 4.8-4.8 1.6-3.4 2.6-3.1 1.5-2.3 1.8-2.3 1.9.3 2-.2-.7-2-1.1-2.2c-.4-.1-.3-.7-.8-1.4s-.1-2.2-.4-2.4c-.3-.3-1-1.5-1.1-2s-.9-.6-1.1-1.3-.5-1.2.5-1.1 1.6-.4 1.8 1.1c.3 1.6 2.8 1 3.4-.8s3-.2 3-.2.4-.2.4 0v4.6s5.2 1.2 7-.2c1.7-1.4 1.9-1.2 2.3-1s.9-.9 1.9-.9h2.5s1-2 0-1.8-.8-1.7-.8-2.4.7-.7.9-.6.4-.5.3-1.5c-.1-.9.8-.8 1-.8s-.1-1 0-1.1 1.1-.3 1.3-.1c.1-1.2.4-2.9 0-3.9z"/><path d="m127.8 376.6c0-.3-.1-.5-.4-.6-1.4-.4-2.2-1.9-2.3-4-.1-2.7 1-6 3.4-7.1 2.5-1 3.6-6.7 4.1-9.4.2-.8.3-1.4.4-1.8.3-1 1.7-1.5 3.2-2.1 1.4-.5 3.1-1.1 3.5-2 .6-1.3-1.9-3-2.8-3.5l-.3-.2v-.3c0-.1-.4-5.2-1.6-7.3-1.1-2-1-4.4-.9-5.2l-69.8-104.7.1-.3 16.5-62.9-64.7-19.6c-.8 1-2.2 2.2-1.1 5.3 1.3 3.7 2.1 4.5.7 6.5s-2.4 8-11.9 18.2c0 0-2.9 5.8 5.3 17.9 0 0 .9.7-1.7 5.8-2.7 5.1-1.6 7.3-1.6 7.3s.2 2.5-.5 3.9 2.2 11.5 7.1 16.8c0 0-.3 3-.6 5.1-.3 2.2 1.9 1.8 1.9 1.8s-.3 3.3 2.2 3.4 1.9-3.6 2.2-4.3c.2-.7 3.1-.2 3.7.2s2.8 1.5 3.5 1.5 1.9-1.2 2.4.6c.4 1.8 1.9 2 3.1 1.9 1.1 0 4.6-1.1 4.6 0s-.9 2.5-2.5 2.4c-1.5-.1-2.4.2-3.9-1s-2.3-.8-4.1-.8-4.7-.1-4.5.8.9 3.6.9 3.6.8-.1 1 2.4.1 3.5.3 3.8 1.2.9.8 2-2 .4-2.4-.4-.8-1.5-1.4-1.7-.6-1-1-1.7-1.2.3-1.2-1.3.2-3.4-.1-3.5-1.4-.5-1.3 1-.7 2.7-.7 2.7.5.8.6 2 .3.6.3 2-.2 2-.8 2.4c-.6.3-.4 1.7.2 1.7s.6.2.6 1.4.7.8.7.8.2-.7.2 1.2 1.2 2 1.5 2h3.4s.3.3.3 1.4 1.1 1.2 1.1 1.2-.4 4.1-.8 4.1-1.9 2.7-3.1 2.7c-1.1 0-1.4 6.7 1.4 9.3s1.5 8 3.4 9.7c1.9 1.8.9 5.7 5.3 9.6 4.4 3.8-3.2 5.3 1 6.8 4.3 1.5-.7 9.9-1.5 11.6-.7 1.8 1.3 6 12.5 7.8s9.1 7.2 9.1 8.5 5 4.1 10.9 5 1.8 7.2 1.8 7.2 2.5.9 2.8 0 11.2 9.6 12.1 16.3c.9 6.8.9 7.8.9 7.8s.6 2.1.9 3.5.4 3 .4 3l.1 1.8s38.7 3.3 41.3 4.7c.4.2.7.4.8.6 3-1.6 4.9-4.1 5-5.3z"/><path d="m128.2 175.1 8.8-37.9.1-.1s2.3-2.8 2.7-5.2c.1-.9-.4-1.3-1.7-2-1-.6-2.1-1.2-2.1-2.5 0-2 .8-4.4 1.4-5.1.6-.6 15.5-17.6 16.2-20.6.6-2.6-3.1-6.8-7.1-9.8-3.7-2.8-24.3-7.4-50.5-6.3h-.1-.1c-1.1-.2-1.9-.5-2.2-.8-.5-.1-2-.1-3.2-.1-4.8 0-6.1-.1-6.5-.8-.3-.6-2.3-2.4-5.7-2.7-1.3-.1-3-.1-4.8-.1-4.4 0-6.4-.1-7.1-.8-.2-.2-.5-.3-.8-.4-1.1-.4-2.8-.9-4.1-4.2-.3-.8-.5-1.7-.8-2.7-.7-2.8-1.5-6.3-4.7-9.6-.6-.2-1.2-.5-2-.9-7.1-3.1-7.2-2.5-8 1.4s-8.7 28-10.6 30.8-11.5 24.7-18.8 30.3c0 0 1.7 6.1.7 8.9s-2.1 3.7-2.2 4.1c-.1.3-.5 3.1 0 4.5.4 1.1 1.4 1.1 1.4 1.8l65.1 19.7z"/><path d="m268.1 420.9 65.7 4.9 9-105.6-102.8-11.8-16.9 121.1 14.7 2.1 1.2-9.2 28.1 2.6.4-4.2z"/><path d="m154.3 293.7c0 .1 0 .1 0 0 0 .4 0 .7-.1 1.1-.1.6-.1 1.2 0 2 .2.9-.2 1.7-.6 2.5-.3.7-.6 1.4-.6 2.1.1 1-.3 1.8-.6 2.6s-.7 1.7-.6 2.9c.2 3.3-2.5 4.6-2.8 4.7 0 0-.1.2-.2.3-.2.5-.6 1.3-2.1 1.2-1.4-.1-1.8-1.3-2-1.9 0-.1-.1-.2-.1-.3-.8 0-1.8-.4-2.7-.9l-.2-.1c-.7-.3-2.2-.7-2.6-.6 0 0-.1.1-.1.1-.4.3-1.5 1.1-1.3 8.5.3 8.4-.8 12-.9 12.2-.5 1.4-1.2 2.4-1.5 2.8-.1.6-.2 2.7.7 4.5 1.1 2 1.6 6.2 1.7 7.5 1 .6 4.1 2.7 3.1 5-.6 1.4-2.5 2.1-4.2 2.7-1 .4-2.3.9-2.5 1.3-.1.3-.2.9-.4 1.6-.7 3.4-1.8 9-4.9 10.3-1.8.8-2.8 3.6-2.7 5.8.1 1.5.6 2.6 1.4 2.9.9.3 1.3 1 1.3 1.9-.1 2.2-3.2 5.4-7.1 7.2-.2.5-.3 1.1 0 1.9 1 3 14.5 9.7 14.5 9.7l48.7 27.8 36.5 6.1 17-121.1z"/><path d="m744.3 347.7c-1.3-.1-4.9-.1-6.1.6s-2 .5-2.4.3c-.6-.3-.8-1-.8-1.5 0-.6-.8-2.8-1.3-3.2-1 .2-2.8 0-3.2 0h-9.2l-7.9.7c-.5.1-6 1.3-8 1.8-1.6.4-7 3.3-10 4.9-.1.8-.4 2.5-2 4.4-.2.2-.3.3-.4.5-.5.6-1.2 1.4-1.1 1.6 0 .1.2.4 1.6.9 1.3.5 2 1 2.7 1.5 1 .7 1.7 1.2 3.8 1.5 1.5.2 2.1.4 2.4.8s.2.7.2 1c-.1.3-.1.6.4 1.2.4.4.8.9 1.3 1.6 2.1 2.6 5.5 6.8 10.9 9.9 2.6 1.5 4.4 2.8 5.6 4 1.1 1.1 1.4 1.9 1.7 2.5.1.2.2.4.3.5 1.2 1.9 3.1 4 4.7 4.1 1.5.1 2.6 1.1 3.2 1.9.7.9 1.2 1.9 1.3 2.5.3 1.7.9 3.3 1.2 3.5.5.2.8.7 1.1 1.2.5.9 1.1 2 2.8 2.2 1.1.1 2.5.9 3 3.8.2 1.1.2 2.3.2 2.8l1.9 1.3c.6.1 1.1.2 1.3.2.6.2 1.6.3 1.5-.5s.7-3.6-.1-4.3c-.8-.8.9-1.6-.7-2.3s-1.6-.7-1.6-1.4c0-.8.9-.9 1.4-.9.4 0 1.4-.9 1.4.3s-.3 1.1.3 1.9c.5.8 1-.4 1.3.9s.1 1.3.7 1.3.9.8 1.6.3c.7-.4 1.8 1.2 1.7-.8s-.7-2.6-2.1-3.2-2.4-1.3-1.4-1.6 3.1 1.1 3.2-.1-.6-1.4.1-2.5 2.1-1.4 2.1-.3-.6 2.3.7 2 7.1-2.3 6.3-4.8c-.8-2.4-1.9-1.6-1.9-3.3s-.6-1.8.4-1.8 3.3-1 3.3.1-.4-.8-.4 1.9 2.8.3 2.8-2.3c0-2.5 2.7-2.6 3.9-2.9 1.3-.4 1.9-2.8 1.8-4.1s0-3.6 2.1-5.5.4-5.3 2.8-5.8c2.4-.6 1-2.8 2.9-3.8 1.1-.6 1.6-.9 1.7-1.2l-23.1-16z"/><path d="m715.1 318.4c0 1-.8 1.3-1.4 1.5-.8.3-1.7.7-2.3 2.3-1 2.9-1.6 3.2-3.4 3.2-.3 0-.6 0-1 0-1.9 0-2.4.1-2.5 1-.3 2-1.6 3.1-2.6 3-.5-.1-.8-.5-1.1-.9-.3-.5-.6-.8-.9-.7-.8.1-1.8 1.4-2.4 2.5l-.2.3c-.5.9-.7 1.4-.9 2.3-.3 1.3-1.6 1.6-2.6 1.7-.3.1-.5.1-.7.2-.5.2-3 2.4-5.1 4.3l-.1.1h-.1c-.9.3-3.2 1.2-3.8 1.2-.5 0-2.4.7-2.8 1.3-.3.5-.8.7-1.3.9-.7.3-.9.4-.9 1.1 0 1.8-.7 3.9-1.6 4.1-.5.1-2.1.6-2.4.9s-1 2.2-1 3.2v1.5l20.6-3c1-.5 8.4-4.6 10.5-5.2s7.9-1.8 8.1-1.9h.1l8-.7h9.3c.9.1 2.4.2 2.9 0 .2-.1.5-.1.9.2 1 .7 1.9 3.6 1.9 4.3 0 .2.1.4.2.4.2.1.5.1 1.1-.3 1.8-1 5.9-.8 6.7-.8l11.8-1.9.2.1 22.7 15.7c.8-.7 2.8-1.1 3.6-.9 1.1.3.8.5 1.6.2s3-1.1 4.1-.8 1.1-.3.8-1.8-.2-3.1.1-4.1c.4-.9.2-1.4 1.2-1.4s.1-.5 1-1.7.3-.8 1.1-1.5-.1-1.4 1.3-1.7 1.4-2.8 2.9-3.4 1.3-.9 2.3-1.8c1.1-.9 2.1-2 2.1-2.9s-.3-1.4.9-1.4 1.6.6 2.9.4c1.3-.1 2.8-1.1 3.9-1.1s3.3-1.4 3.6-2.7 3.1-2.6.8-3.1-3.2-.3-4.1.6-2.6 2.6-4.3 1.6c-1.7-.9-5 .3-5-1.1s-.6-1.6.8-1.6 2.5.1 3.7-.1c1.2-.1 3.2 1.2 3.2-1.4s2.8-2.1.8-3.1-4.4-.9-7-1.7-5.9-3.6-4-3.8c1.9-.1 6.6 1.2 7.3 1.3.8.1 2 2.1 2-.3s0-3.8 1.1-3.4 1.3 1.6 2.8 2.1 2.3-.6 3.6-.1c1.2.5 1.6-.3 2.6-1.8s0-4 1-4 2.1 1.4 2.5-.6-.2-6.9-2-5.8c-1.8 1-1.9 1.3-1.8 3.2.1 1.8-1 2.9-1.5 2.7-.5-.3.5-1.4-1-2.9-1.4-1.5-3.6-3-4-1.4s2.1 3.6-.4 3.6c-2.5-.1-3.1-1-5-1.1s-5.1-2.6-4.3-3.4 1-4.6-.5-5.5c-1.4-.9-2.3 1.8-2.6.4s-.1-2 .8-2c1 0 3-.8 3.6.8.5 1.5.8-.8 1 2 .2 2.7-1.1 3.8.3 4s1.3 0 2.5 0 2.1-3.4 3.4-3.6.5-1.4 1.1-2.8c.5-1.4 2.7-1.6 3.4-.5.7 1 2.4-2.2 1-2.6-.8-.2-2.6-1.1-3.6-1.9-37.4 8.7-89.8 16.3-95.3 17.1.1 1.1-.2 3.9-.2 4.9z"/><path d="m783.5 250.3c-.1-.1-.2-.2-.4-.3s-.9-.4-1.2-.5c-.2-.1-.4-.1-.5-.2-.3-.1-.5-.4-.8-.6-.5-.6-.9-1-1.5-.8-1.3.3-2.4-.2-3-.4-.1 0-.2-.1-.3-.1-.9-.1-1.2-1.5-1.2-2.2 0-.2-.1-.4-.4-.7-.2-.3-.4-.5-.6-.9-.3-.2-1.4-.4-2.6-.4 0 .6-.2 1.3-.6 2.4-.2.6-.4 1.2-.4 1.6 0 .2-.1.8-.6 1s-.9-.1-1.3-.4c-.2-.1-.4-.3-.5-.4-.1 0-.1 0-.2-.1-1-.4-3.7-1.4-5.8-3.7-.3-.3-.6-.6-.8-.8v1.9c0 1-.2 1.8-.4 2.5-.2.8-.5 1.7-.5 2.8 0 2.5-2.5 4.2-4.1 5.3-.1.1-.2.2-.3.2-1.8 1.3-3.8 3.3-3.8 4.5 0 1-.5 2-1 2.9s-.9 1.7-.9 2.5-.4 1.5-1.1 2c-1 .6-2.4.6-3.1.3-.1 0-.2-.1-.3-.2-2-1-2.9-1.4-3.3-1.4-.6 1.3-2.1 6.6-1.8 7.7.3.9-.2 2.6-1.4 5.1-.9 1.8-2 3.8-2.7 4.7-.5.6-.7 2.6-.9 4.2-.2 2.4-.4 4-1.4 4.2-.4.1-.8.2-1.1.3-.7.2-1.5.5-2.7.6-.6.1-.9.4-1.5 1-.5.6-1.2 1.3-2.4 1.6-1 .3-2 1-2.8 1.6-1 .7-1.6 1.2-2.3 1.1-.3-.1-.6-.3-.9-.5-.7-.6-1.2-1-2.4.4-2 2.3-4.1 2.4-4.6 2.4-.1 0-.1 0-.1 0h-.2l-7.1-4.3-23.2 21.3 32.2-5.1c.6-.1 56-7.9 95.3-17 .1-.2.3-.4.8-.5 2.7-.8 2.1-4.2 1.4-4.3s-4-3.2-5.8-.8-4.9 3.4-4.7 1c.1-2.5-.1-2.5-1.8-2.4s-1-1.5-2.2-2.1-4.3-.6-5-1c-.7-.5-.8-2.5.6-2.5s2.1-.6 2.6 0c.3.3.9.2 1.4.2s1 .2 1.1.9c.1 1.6.9-1.1.1-2.1s-2.4-.3-2.1-1.1c.3-.9-.9-1 .7-1 1.6.1 1.6-.3 2.4.7s1.4 1.5 1.4.1 2-2.7-.1-4.3-4-.9-6-3.4c-2-2.4-5.5-3.4-4.3-4 1.3-.6 5.7 1.6 6.7 2.6s1.1 2.3 2.7 1.4.3-3.6-2.7-4.7-2.1-1.7-5.4-2.7-6.7 1-8.9-1.9-3.3-1.3-2.4-4.2.2-4.6 2.2-5.2c.1 0 .2-.1.4-.1.4-1 .7-2 .8-2.5.2-.7-.1-.9-.4-1.2z"/><path d="m738.8 405.3c0-.1.2-5.4-2.1-5.6-2.3-.3-3.3-1.8-3.8-2.8-.1-.3-.4-.6-.5-.7-1.2-.5-1.8-3.3-2-4.5-.1-.6-1.5-3.2-3.4-3.3-2.5-.1-4.8-3.3-5.7-4.7-.1-.2-.2-.4-.3-.7-.5-1-1.2-2.7-6.8-5.9-5.5-3.2-9.1-7.6-11.2-10.2-.5-.6-.9-1.2-1.3-1.5-.9-1-.8-1.8-.7-2.2-.2-.1-.6-.2-1.5-.3-2.4-.3-3.4-1-4.4-1.7-.6-.4-1.3-.9-2.4-1.4-1.3-.5-2.2-1-2.4-1.8s.4-1.6 1.4-2.7c.1-.2.3-.3.4-.5 1.1-1.3 1.5-2.5 1.6-3.2l-42 6 15.1 50.7c.6.6 2.3 2.5 2.3 3.9 0 .4.2.8.5 1.2.4.7 1 1.8-.1 2.6-.8.5-1.1 2-1.1 4.1 0 .5 0 1.1-.1 1.8-.1 1.9-.3 4.5.8 7.3s.8 4.3.4 5.6c-.1.6-.3 1.2-.3 1.9 0 .9.6 1.5 1.2 2.1s1.3 1.2 1.3 2.3c.9 1.6 2.3 4.2 2.7 5.3 1.9.3 13 .1 19.8-.2 1.1-.2 17.1-2.6 20.4-2.6 3.4-.1 9.6.7 9.8.8h.3l.2.2c.7 1.1 1.6 2.4 1.9 2.7.5.1.7.1.8.1 0 0 0 0 0-.1 0-.4 0-1.1 0-1.8 0-1.1 0-2.6-.1-3.1 0-.1-.2-.4-.4-.6-.4-.4-1-1.2-.5-2 .1-.2.2-.5.3-.7.2-.4.4-.8.8-1.1 0 0 .2-.1.3-.2.6-.5 2-1.8 3.4-.7.8.6 1 .6 1.8.7.2 0 .5.1.8.1.5.1 1.5-.1 2.7-.3-.6-2-1.5-5.1-1.1-5.6.6-.7-1.4-1.4-.7-2.6s2.3-.8 2.8-.8c.6 0 1.2-2.6.1-2.9s-.2-2.1.7-2.3c.9-.1 1.9-1.8 1.6-2.4s.4-1.4-.5-2.4c-.9-1.1-1.5-2.4-.8-2.4-.4-.1-1.3-.3-1.3-1.7 0-1.9.3-2.5 1.1-2.7.9-.2 1.7-.2 2.4-.2s2.3.6 2.3-.2.6-2.6-1.3-3-2.8-.8-2.7-1.8c0-.1.1-.3.2-.4l-1.2-.8z"/><path d="m626.5 455.2c.1-.1.1-.2.1-.5 0-.6-.2-.8-.7-1.2-.2-.1-.3-.3-.5-.4-.6-.6-1.9-1.6-1.9-1.7l-.3-.2.3-4.7h.5c16.9-1.4 44-4.1 46.9-5.4-.1-.5-.4-.8-.9-1.3-.7-.7-1.5-1.5-1.6-2.9 0-.8.1-1.5.3-2.2.3-1.2.6-2.4-.4-4.9-1.2-3.1-1-5.8-.9-7.9 0-.6.1-1.2.1-1.6-.1-1.8.2-4.1 1.6-5.1.1-.1.2-.1-.3-1-.3-.5-.6-1.1-.6-1.8s-1.2-2.3-2.1-3.1l-.1-.1v-.2l-15.2-51.1c-12.5.8-43.2 2.8-45 3.1 0 .2.2.6.3.8.2.3.4.6.5 1s.3.5.5.6.8.2.8.9c0 .6-.5.9-.9 1.2-.1.1-.3.2-.4.3 0 2.4-1 59.8-1 62.9l4 32.9c.9-.6 1.7-1.5 2.3-1.2.7.5 1.4 1.4 2.1.9s.9-1 .8-2.1c-.1-1.2-.2-1.7 0-2.3s.7-2.6.3-3.3c-.3-.8 2-1.4 2-.1 0 1.2.5 1.5.9 1.5s.2-.4.2.9.4 1.3.6 2.2c.1.8-.5 2.2.2 2.6.7.3 1.2.3 1.8 1s.3 1 1.1 1 1.4.4 2.1.2.3-1.9 1.2-1.8.8-.2 1.1-.5c.1-.1.3-.5.4-.9-.3-.9-.5-1.8-.6-2.5 0-1.3.1-1.6.4-2z"/></g><path d="m734.3 439.2c-.3 0-.6-.1-.8-.1-1-.1-1.4-.2-2.4-1-.4-.3-1 0-1.7.7-.2.1-.3.3-.4.3-.1.1-.2.3-.3.5s-.2.5-.4.9c0 .1.2.4.4.5.3.3.6.7.7 1.2s.1 1.7.1 3.3v1.7c0 .6-.2.9-.4 1.1-.3.3-.7.3-1.1.3-.3 0-.7-.1-.9-.1h-.1c-.3 0-.6-.1-2.4-3-1.3-.2-6.4-.8-9.3-.7-3.3.1-20.1 2.6-20.3 2.6h-.1c-.1 0-5.2.2-10.2.3-3 .1-5.3.1-7 0-3.2-.1-3.8-.2-3.8-.9-.1-.4-1.2-2.6-2.4-4.7-.4.2-1 .3-1.7.5-1.2.3-3.1.6-5.4.9-3.9.6-9.5 1.2-16.4 1.9-10.3 1.1-20.8 1.9-23.2 2.1l-.2 3c.4.4 1.3 1.1 1.8 1.5.1.1.3.2.4.3.5.4 1.2.9 1.2 2.2 0 .7-.1 1-.3 1.2 0 .1-.1.2 0 .9 0 .2.1.4.1.6.1 0 .2 0 .3-.1.8-.1 1.1-.1 1.1.4 0 .6-.1 1.2 0 2s2.7-.1 2.3-1c-.3-.9-.3-2.7.2-3.2s.8-1.1 2.1-.6c1.2.5 2.3-.3 2.6 1.6.3 2 1.1 1.1 2 1.3.9.1 4.9.4 6.8-2.5 2-3 5.1-.2 5.7.3s1.5-1 1.9 1c.5 2.1 1.4 2.7 2.5 2.9 1.2.2 2.3 0 2.6-.5s2.8-.9 3.5-.7 1-.8 1.2.8-1.1.7-1 1.8c0 1.2 2.6 2 2.9 1.1s.6-1.1 1.2.1c.5 1.2 1.2-.8 1.6 1.3s0 .9.3 2.3c.3 1.5.6.1 1.2 1.4s.3.2.6 1.6c.3 1.5 4.3 1.2 5.5.2 1.2-.9.8-2 1.4-1.9.7 0 1.6.2 2.5 0s-.1-1 1.2-1 .4-1 1.4-.9 1.5-.8 2-1.1.6-.8 1.3-1.1.7-.6.8-1.2c.1-.7 1-1.1 1-1.6s-.7-1.6.2-1.3 4.2-.3 4.8.2 3.8-.6 4.2.5 1.4-1.7 3.3 1.6 2.7.1 3.8 4c1.2 3.8 2.1-.9 2.6 1.4s5.3 7.8 11 9.2c5.7 1.3 4.3 0 4.3 2.4s4.7 4.9 3.6 18c0 0-1.4.5-1.9 4.6-.4 4.1 1 5.1 2.1 5.1 1 0 2.8.4 2.7-.4s-.4-1.9-1.4-2.4c-.9-.5-3-1.6-.9-1.6s2.1-1.4 3.1.3c1.1 1.7 4-.2 3.9 2s-1.6 3.6-2.3 4.5c-.6.9-.5 1.8 1 2.1s1.1.9.2 1.6-2.8 1.9.8 5.6c3.6 3.8 3.3 6.6 5.1 6.8 1.9.3 1.6-1.4.8-2s1.4-1.3 2.3-1.7c.8-.4 1.4-.6 2.1-.5.8.1.6 1.9-.4 2.1s-.3 3.6-.3 5 .1.3.5 1.4 2.3 2.1 2.3 1.1.1-2.4 1-2.4 1.1-2.3 1.3-.8c.3 1.5-1 .3-.9 1.8s.1 3.8 1 4.6c.8.8 2.2 4.3 3.1 7.1.9 2.9 6.5 2.5 9.5 2.8s2.6.4 2.6 2.1.6 5 3.9 7.1 3.3 1.7 3.3 2.6.7 1.6 0 1.6-3.1-1.4-3.9-1.4-2.1 0-1.5 1.1 1.9 1.9 2.3 1.9.9 0 2.7-.2 1.9-2.1 4.5-1.7 2.6-.9 4.5-1 2.8-2.6 2.4-4.3c-.4-1.8-.3-5 .1-6.3s1.7-5 1.2-6.3c-.6-1.3.4-13-1.1-16.4s-2.1-8.7-5.7-10.3c-3.6-1.7-1.6-2.3-1.1-2.3s1.9.4.8-1.1c-1.1-1.4-1-3.6-3.4-6s-4.6-8.7-7-10.9-5.5-8.5-5.5-10.3-4.1-11.7-6.1-12.5-11.8-23-11.9-23.2-2.4-4.8-2.6-6.1v-.1c-1.4.6-2.6.7-3.2.6z" fill="#bedbd4"/><path d="m522 124.8.1.3-.3.2c-2.6 2.4-6.9 6.7-7.2 8.3-.5 2.7 0 3.2.5 3.5 1.5.8 2.1 2.9 1.7 5.4-.2 1.1-.1 2.5 0 3.9.1 2.1.3 4.5-.3 6.7-.6 2.4 1.3 3.5 3.5 4.5.3.1.6.3.8.4.3.1.7.3 1.2.5 2.3 1 6.7 2.9 8.9 6.4 2.8 4.2 5.5 4.6 6.3 4.6 1.2 0 2.2 1.4 3.1 4.2v.1s0 .1.1.1c.3.5 1 1.7 1 3.3v3.8h-.2c0 .6.1 1.3.2 1.6 0 0 .1 0 .1.1.7.4 2.4 1.3 2.2 3-.1.8-.5 1.5-.8 2.1-.4.7-.8 1.4-.8 2.3s.4 1.4.9 2 1.1 1.3 1.2 2.4c0 .3.1.5.1.8.1 1.5.2 2.3 3.6 2.4 2.5.1 3.2 1.5 4 3.2 4-.2 34.6-1.5 44.4-2.1 0-.1 0-.3 0-.4 0-4 1.3-8.7-.4-9.8-1.7-1-2.7-8.6-1.7-10.8.9-2.2.9-10 1.4-12.7.4-2.7 4.6-4.5 3.3-7.5-1.4-2.9.3-4.4.3-5.9.1-1.5-.1-2.8-.2-4s-3.3-1.8-5.6 1.7c-2.2 3.5-3.7 5.5-4.1 1.6s.3-3.5 1.5-4c1.3-.5.5-2.1 2.1-3.2 1.3-.8 2.2.6 2.5-.7-.3-.2-.6-.4-.9-.7-1.5-1.2-2.2-2.5-2.1-3.7.1-1.4-.5-1.5-1.2-1.7-.2 0-.5-.1-.7-.2-.5-.3-.5-1.1-.4-3.6.1-1 .1-2.2.1-3.1s-1.1-1.5-2.3-2.1-2.4-1.3-2.6-2.5c0-.2-.1-.2-.1-.2-.1-.1-.6 0-.8.1-.7.2-1.9.4-2.3-.8-.5-.5-4.3-.7-8.3-.4h-.3l-.2-.2c-2.4-2.2-9.6-3.4-13.9-4-2.2-.3-3.4-.5-4-.8-1.2-.5-2.8-2.9-3.9-4.7-2.4 3.1-8.8-1.3-8.8-2.2s.1-2.8 0-4.5-3.6-.2-7.1 1.4c-2.3 1-7.4 3.1-10.8 4-2.5 3.2-3.6 7.1-2.8 11.6z" fill="#d6d9d7"/><path d="m654.3 264c.1.3.2 1 .2 1.6.6.3 2.4 1 4.7-.2 1.1-.6 2-.6 2.8-.3 1.3.7 1.7 2.5 1.8 3.4 0 .2.1.3.1.4.2.8 2 3.1 2.8 3.1.4 0 .7-.2 1.2-.4.7-.4 1.7-.9 2.8-.1.4.3.7.7 1 .9.5.5.7.8 1.6.8.6 0 .8-.1 1-.2.4-.3.9-.5 2.2-.4.9.1 1.8.1 2.5.1 1 0 1.8 0 2.6.2.5.1 1.6-.7 2.4-1.4.7-.6 1.4-1.1 2-1.3s1.2-.1 1.6.1c.7.4 1.2 1.3 1.6 2.7.1.4.2.5 1 .5h.1c.8 0 1.8 0 2.7 1.1.7.9 1.2 1.1 1.4 1.1l.9-.5v.1c.6-.2 1.2-.4 1.5-.4h.1c.9 0 1.5-1.9 1.9-3.5.4-2 .6-3.6.7-4.9.2-1.7.3-2.8.8-3.6.6-1 1.7-1 2.7-1 .7 0 1.3 0 1.8-.3.3-.2.1-1.2-.1-2-.2-.9-.4-1.9-.2-2.6.3-.9.9-1.3 1.4-1.6.6-.3 1.2-.7 1.7-1.9 1.3-2.7 3.2-2 4.1-1.6h.1c.8-.6 3.5-4.6 5.7-8.1l1.7-21.1-5-27.4c-4.9 3.8-12.1 9.9-16.6 12.7-6.2 3.8-14.8 5.2-17.6 4.2s-3.5 2.2-3.7.6 1.2.4.3-1.7-2.1-1.8-3.8-2.1c-1.6-.2-3.7 0-4.4-1.1l-20.4 2.1z" fill="#d6d9d7"/><path d="m720.3 222.8c.3 1.9 1.8 10.2 1.8 11 0 .3.1.8.2 1.5.2 1.2.4 2.9.4 4.6 0 .7.1 1.1.4 1.4.4.4 1.1.4 1.5.4h.1c1.2 0 9.5-1 10.4-1.6.7-1 3.3-.8 4.9-.5 3.6-.8 57.1-12.2 58.6-12.4 1.2-.1 1.9-.7 2.3-1.8.5-1.4 2.2-2.2 4.7-2.3 1.5-.1 2.1-.7 3.1-1.9.9-1.2 1.9-2.4 2.4-3 .1-.1.3-.3.5-.6 2.3-2.3 2.6-3 2.5-3.3-.1-.6-.9-1.3-1.6-1.8-.3-.3-.6-.5-.9-.8-.2-.2-.5-.3-.8-.5-.6-.3-1.3-.6-2.2-1.9-.1-.2-.2-.3-.3-.5-.4-.7-.4-.7-.8-.9-.2-.1-.6-.3-1-.5-1.5-.8-1.6-1.4-1.3-2.6.1-.3.2-.7.2-1.3.1-1.1.4-1.7.6-2.1s.3-.5.2-1-.3-.8-.5-1.1c-.3-.5-.6-1.1-.5-1.9.2-1.3 1.1-2.4 2.5-2.9.3-.1.3-.3.3-1.3 0-.5 0-1 .1-1.7.1-.8.7-1.5 1.2-2.1.1-.1.2-.3.3-.4-.1 0-.2 0-.4-.1-2.7-.3-5-1.9-5.1-2l-.1-.1-.1-.1s-1.9-3.6-3-5.7c-.8-1.5-3.5-2-4.5-2.1l-69.7 13.9-.9-7.1c-3 2-5 5-7.7 6.6-.7.4-1.8 1.2-3 2.2z" fill="#d6d9d7"/><path d="m607.5 256.6c.3 1.5.5 2 .5 2.3 0 .1 0 .4-.1 1.1-.2 2.1-.8 7.9-.2 9.3.4 1.1.6 2.7.7 4.3.1 1.2.3 2.5.5 3.2.6 1.7.4 2.5 0 4v.1c-.3 1.3-1.5 4.9-2.1 5.6-1.6 1.8-3.4 4.1-3.5 5.3-.3 2.2-.8 7.1-.8 8.1 0 .2 0 .5-.1.7h.6c.2-1.1 1.4-2.5 3.2-2.4 1.2 0 1.5.2 1.9.4.2.1.4.2.7.3.2.1.4 0 .8-1 .2-.3.3-.7.6-.9.7-.9 1.1-1.1 2.6-1.2s3.4.9 4.2 2.3c.1.2.2.5.3.7.1.1.1.3.2.4.1-.1.4-.5.8-1.1 1.5-2.5 2.7-3.7 4.1-3.8 1.3-.1 2.1 1 2.7 1.8.1.2.2.2.3.2.2 0 .6-.3 1.1-1.1.9-1.7 1.7-3.5 2.1-4.7.1-.3.3-.8.8-1s1 .1 1.4.4c.3.2.6.4.9.5.7.3 1 .7 1.2 1s.4.6 1.6.9c.9.2 1.8.3 2.2 0 .3-.2.4-.8.4-1.7 0-.3 0-.6 0-.8 0-1 0-1.4.3-1.7s.6-.3.9-.3h.5c.8-.1 1.3-1.7 1.6-3.3.3-1.4 1.1-2 1.9-2.5.4-.3.9-.6 1.3-1.1.8-.8.7-1.2.4-1.9-.1-.2-.2-.5-.2-.8-.1-.7 0-1.5.5-2.2.4-.6 1.1-1.1 1.9-1.2 1.2-.2 1.8.5 2.1 1 .1.1.2.2.3.3.3 0 1.5-.5 1.9-1.1.4-.7 1-1.1 1.8-1.6.5-.3 1-.7 1.5-1.1.3-.3.3-.5.3-.6 0-.4-.4-.7-.5-.8-2.1-2.1-1-3.5-.5-4.2.1-.1.1-.2.2-.3.1-.3.1-1.2-.1-1.9v-.1l-6.3-54-32.6 3.1c-.8.7-1.6 1.3-2.5 1.9-2.1 1.4-3.9 2.3-5.3 2.8v32.5c-.1 1 .5 4 1 5.9z" fill="#d6d9d7"/><path d="m739.3 416.4c.1 0 .2 0 0 0z" fill="#d6d9d7"/><path d="m558.9 208.9c.2.1 3.1 2.5 2.5 5.6-.4 1.8-1.4 2.7-2.3 3.5-.5.5-1 .8-1.1 1.3-.1.4-.2.7-.2 1-.2 1-.3 1.7-1.7 2.5-.6.4-1.1.7-1.5 1-.8.5-1.4.9-1.9 1.1-.2.1-.5.2-1 .3-1.7.4-5.2 1.2-5.6 4.1 0 .2.2 1.2 1.5 1.6 2.5.7 2.5 2.5 2.5 3.2 0 .9-1.3 2.9-2.1 3.3-.3.4-1.2 2.5-1.5 4.2-.2 1.6-1.5 2-2.4 2.2-.4.1-.9.2-1 .5-.1.2-.6 1-.6 4.2v.1c0 .2-.1.7-.9.9-.1 0-.3.1-.6.1-.1 0-.3 0-.4 0-.1 1.4-.2 4.4.8 7 .8 2 1.4 3.3 1.8 4.2.4.8.7 1.4.8 1.9.5.9 5.8 5.5 8.1 7.5 1.1 1 1.9 1.7 2.1 1.9 1.1 1.1 1.2 4.6 1.2 5.7 0 1.6.2 1.8 1.3 1.8.6 0 .6-.1.8-.4s.5-.9 1.4-1h2.4c1.4.1 1.8.2 2 .5.1 0 .2.1.3.2.4.2 1 .6 1.1 1.1h.2.1c.2 0 .4.1.5.3.3.4.2 1.1-.5 3.4-.2.9-.5 1.8-.6 2.5-.2.8-.5 1.7-.9 2.6-.6 1.5-1.4 3.2-1.2 4.8.2 2.3 8.2 7.3 10 7.2 1.3 0 1.6 1 1.8 1.6.2.9.4 1.6 2.4 1.7h.5l.6 3.8c1 .3 2.2 1.2 2.2 2.9 0 1.1-.5 2-.9 2.8-.4.7-.6 1.1-.5 1.4.4 1.1 1.6 2.7 3 2.9 0 0 .7.1 1.4.3.8-1.6 2.4-4.3 3.7-4.5 1.4-.2 3.9-.3 4.4 1.3.2.4.6.5 1.4.7.3 0 .6.1.9.2.4.1.6.3.8.4.1.1.2.1.8.1.5 0 1-.3 1.2-.6.2-.2.2-.4.2-.4 0-.1-.1-.3-.3-.5-.3-.4-.7-1-.9-2.1-.1-.3-.1-.6-.2-.9-.2-.9-.4-1.6.5-2.5.5-.5 1.2-.6 1.8-.7s1-.1 1.2-.5c.5-.8 1.1-.9 1.5-.9.2 0 .2 0 .4-.3.4-.6.3-.8 0-1.5-.1-.3-.2-.6-.4-1-.3-1 .2-2.1.7-3.1.2-.6.5-1.1.5-1.5 0-1.2.6-6.5.8-8.3s2.5-4.5 3.8-6c.3-.4 1.3-3.2 1.8-5.1v-.1c.4-1.5.5-2 0-3.3-.3-.8-.4-2.1-.6-3.5-.1-1.5-.3-3-.6-3.9-.6-1.5-.2-5.9.1-9.9 0-.5.1-.9.1-1 0-.2-.2-1.1-.4-2-.5-2.2-1.2-5.1-1.2-6.4 0-1.5 0-22.7 0-32.1-6.6 1.2-4.9-8.5-5.5-10.8-.6-2.4-2.5-4.5-3-7.5-9.5.6-38.2 1.8-44 2.1 1.3 2 2.9 4.3 6.6 6.8z" fill="#d6d9d7"/><path d="m669.7 203.7c1.1-2.6 1.3.3 1.2-2.9s-.7-5.3.3-5.9c1.1-.6 3.9-1.1 3.9-3.8s.5-2.6.7-4 0-2 1.2-1.8 2.4-.4 3 .3 1.3-4.3 1.2-6.2c-.2-1.8-1.7-5.1-1.9-5.4-.2-.4-.4-4.1-1.5-7.1s-2.3-2.9-2.5-4.6c-.2-1.6-.1-5-1.7-5.7s-4.1-1.3-5.5-.1-3 .2-3.5 3-1.2 3.4-2.2 3.9c-.9.6-1.1 2.8-3.4 2.4-2.3-.5-.5 1.7-2.1 1.3s-2.5-6.4-1.8-7.2c.7-.7 1.4-.8 2.6-1.5s2.6-.4 2.1-2.6 1.7-2.8 1.9-4.9.2-.6.1-3.5c-.1-2.8 1-4.7.2-6.4-.8-1.6-3.5-2.5-3.4-4.5.1-1.9.8-.1.9-2.6s.6-3.8-2.6-4.6-4.7-.8-6.3-1.8c-1.5-1.1-6.1-1.8-7.2-2.7s-3.7-2-6-1.6-5.3 3.7-5.7 5.1 3.9 1.5 1 4.1c-3 2.6-3.6 1.3-3.7 4.5-.1 3.1.7 2.1-.1 4.6-.9 2.5.1 5.1-1 5.1s-2.7-.1-2.4-2.7 1.1-4.8.1-5.2-1.1.5-2.7 2.7-1.1 3-3 3.3-1.6.5-2 2.7c-.4 2.1-.9 6.2-1.8 6.2s2.1 4.7-.5 6.8c-2.6 2.2-3 2.4-2.6 4.8.4 2.3 1-.4 1.5 3s1.5.8.9 5.1c-.6 4.2-.7 3.4.4 5 1 1.6 6.4 7.6 5.9 10-.4 2.1 3.1 14.1-6.1 23.5l52.3-5c.1-.9.9-.9 1.8-3.1z" fill="#d6d9d7"/><path d="m816.7 125.4c0 .6-.1 1.2-.1 1.4.1.5.4 1.1.9 1.7.5.7 1 1.5 1.3 2.5.2.9.1 2-.1 2.9-.1.7-.2 1.6 0 1.8s.9.3 1.4.3c.9.1 1.9.2 2.2 1.1.1.4.1.9.1 1.5 0 .9-.1 1.9.4 2.5.8 1.1.9 2.4 1 3.6 0 .4.1.8.2 1.2s.3.8.5 1.2c.4.8.9 1.8.9 3.8 0 1.4.2 1.6.3 1.8.1.1.2.3.3.4 2-.6 7.7-2.2 10.1-2.8-.3-.6-.6-1.5-.6-2.8s.3-1.9.5-2.2c0 0-.1-.1-.1-.2-.6-.9-.5-1.7-.5-3 0-.6.1-1.2.1-2.1 0-.4 0-.8 0-1 0-1.1 0-1.1-.2-1.5-.1-.2-.2-.4-.3-.7-.6-1.4-.6-2.3-.6-4.1 0-.3 0-.6 0-.9 0-1.6.3-2.1.7-2.7.2-.2.2-.3.3-.7.2-1.3.4-2.3.8-3.8.1-.3.2-.6.2-.8.2-.8.4-1.2.4-2.6 0-.8-.2-1-.5-1.4s-.7-.9-.8-1.8c-.2-1.4.1-1.8.6-2.6.2-.2.4-.5.6-.9 1.5-2.5 2.6-3.9 3.6-4.4.7-.4.7-1 .5-2.4-.1-.4-.4-.8-.7-1.1-.5-.5-1.1-1.2-.9-2.1.1-.5.2-.9.3-1.3.2-.6.3-1.3.4-2.2.1-.8-.4-3.8-.9-6.3-6.5 4.1-6.1 7.8-15.4 9.2-3.4.5-7.1 1.3-10.8 2.3.4 3.1 1.3 8.5 2.8 10.4 1.6 2.7 1.3 6.5 1.1 8.8z" fill="#d6d9d7"/><path d="m556.3 118.1c.4.2 2 .4 3.7.7 4.6.7 11.6 1.8 14.4 4.2.6 0 2.3-.1 4.1-.1 2.5 0 4.9.2 5.2 1.4v.1c.1 0 .5-.1.8-.1.6-.1 1.3-.3 1.8.1.3.2.5.6.6 1.1.1.6 1 1.1 1.9 1.6 1.3.7 2.9 1.6 2.9 3.2 0 1 0 2.2-.1 3.3-.1.9-.1 2-.1 2.5h.1c.7.1 2.3.4 2.2 3-.1 1.1.9 2.2 1.9 2.9 0-.1 0-.3 0-.4 0-4.2 1.5-.1 2-4.8.4-4.7 1.4-1.7 2.4-5.1 1-3.3 1.2-3.9 2.9-4 1.7-.2 2.7 1 3-.4.3-1.5.7-2.1 1.5-1.5s.4 3.3 1.1 3.3 1.4-.1 2.2-2.1c.9-2 1.6-2.7 2.4-3.7.8-.9.9-3.9 2.4-3.9s3.8.3 6.3-.3c2.6-.7.5-1 2.7-1s2.3-1.3 3.9-.1c1.5 1.2 3.4.5 4.8 1.7s3.9 3.4 4 .7-.9-3.6 1.3-3.1c2.1.5 1.3.7 4.3.5s5.7 3.9 5.6-.4c-.1-4.4.2-3.5-2.2-4.4s-3.1 1.5-3.1-2 2.4-3.6-.3-3.6-4.2-.8-6.3.1-3.4 1.8-4.4.4c-.9-1.4-2.2-.1-2.2-2.8s-.3-3.1-2.2-3.1-3.3 1.5-5.1 2.7c-1.7 1.2-8.7.9-11 2.7s-3.4 5.7-5.2 5.6-7.9-.5-9.4-1.7-4.4-3.6-6.2-6.1-9 0-11.7 2-.4-6.5-1.2-6.9c-.8-.3-2.5-2.5-5.1 0s-5 6.3-10.1 7.2c-4.6.8-7.7 3.5-10 6.3 1.1 1.7 2.7 4 3.5 4.3z" fill="#d6d9d7"/><path d="m175.5 40.4c-.4 1.4-.9 3.2-.7 4.8.3 1.9-.7 3.7-1.3 4.7-.1.2-.2.4-.2.5v.3c-.3 3.3.3 4.1.7 4.3 2.1 1.2 2.2 5.3 2.2 5.7 0 1.1.1 5.3.2 6.1.1.2.6.8 1 1.4 1.4 1.8 3.7 4.8 5 8.3 1.8 4.8 5.2 8.6 5.9 9.1.1 0 .3 0 .4-.1.7-.1 1.7-.3 2.3.5s.4 2.2-.8 4.6c-2.4 5-3.2 7.6-2.7 8.7l.1.3c.7 1.7 1.1 3 .8 3.7-.1.3-.3.4-.6.5-.2 0-.4.1-.6.1-1.6.2-3.1.6-3 2.8.1 1.9.5 2.9 1.2 3.3 1 .6 2.9.2 5.6-1.2.3-.6 1-1.3 2-1.1 1.3.3 1.2 1.5 1.1 2v.2h.1c.3.1.7.3.9.7.1.4.2 2.6 0 6.5.3.6 1.3 3 1.7 4 .1.3.4.7.7 1 .6.7 1.3 1.7.9 2.7-.1.2-.2.4-.3.6-.5 1-1 2.1-.5 2.4.2.1.5.2.8.3 1.5.5 3.6 1.1 3.9 5 .3 3.5 1 4.5 1.6 4.8.5.2 1.1 0 2-.6l.1-.1h.1c.3-.1 2.1-.5 2.9.2.4.4 1 .5 1.9.6.1 0 .2 0 .5-.2.4-.3 1-.7 2.4-.7 1.3 0 3.2.4 4.8.8.8.2 1.7.4 1.9.4.4 0 1 .2 1.6.4s1.5.5 1.9.4c.7-.3 1.7-1.5 1.7-1.9-.1-.3 0-.7.3-1 .6-.5 2-.8 3-.4.8.3 1.2 1 1.2 1.9.1 1.7.9 2.7 1.2 2.9h.2v.1c.2-.4.7-1.6 1-5.7v-.1-.1s.8-1.9.8-3.1v-.7l.7.1c.9.1 91.7 12.6 106.4 13.3l7.7-87.4c-47.4-4.2-105.6-12.1-170.4-26.4-.8 3.6-1.6 7.6-1.8 8.5-.2.4-.4.8-.5 1.3z" fill="#d6d9d7"/><path d="m150.5 93.7c.8.7 1.5 1.6 2.2 2.4 1.8 2.3 2.5 4.3 2.1 5.9-.9 3.5-16.4 21-16.6 21.2-.2.3-1 2.2-1 4.2 0 .5.6.9 1.5 1.4 1.1.6 2.6 1.5 2.3 3.3-.4 2.4-2.4 5.1-2.9 5.7l-8.8 37.6 46.3 11 46.2 8.8c.8-4.2 5.8-29.4 8.8-53.3 0 0-.1 0-.1-.1-.9-.3-2-1.9-2.1-4.1 0-.4-.2-.6-.5-.8-.5-.2-1.2 0-1.5.1.1 1.2-1.5 2.8-2.5 3.2-.8.3-1.8-.1-2.7-.4-.4-.2-.9-.3-1.2-.3-.4 0-1-.2-2.2-.4-1.4-.3-3.4-.7-4.5-.7-.9 0-1.3.2-1.6.5-.3.2-.7.5-1.2.4-.9 0-1.9-.2-2.7-.9-.2-.2-1-.1-1.6 0-1.2.9-2.3 1.1-3.2.7-1.3-.6-2-2.5-2.3-5.8-.2-3-1.7-3.5-3.1-3.9-.4-.1-.7-.2-1.1-.4-1.6-.9-.6-2.9 0-4 .1-.2.2-.4.3-.5.1-.3-.3-.8-.7-1.4-.3-.4-.7-.9-.9-1.3-.4-1.1-1.7-4-1.7-4.1l-.1-.1v-.1c.1-2.6.1-5.4 0-6.1 0 0-.1 0-.1-.1-.3-.1-.9-.3-1-1.1 0-.2 0-.4 0-.5.1-.6 0-.6-.2-.6-.4-.1-.6.5-.6.5l-.1.2-.2.1c-3.3 1.7-5.6 2.1-7 1.3-1.5-.8-1.8-2.7-1.9-4.4-.2-3.5 2.9-3.9 4.1-4.1h.3c0-.6-.6-2.1-.8-2.6l-.1-.3c-.5-1.3-.2-3.3 2.8-9.7 1.3-2.7.9-3.3.9-3.3-.1-.2-.8-.1-1.1 0-.4.1-.8.1-1.1 0-.8-.4-4.6-4.7-6.5-9.8-1.2-3.3-3.4-6.2-4.8-7.9-.9-1.2-1.2-1.6-1.2-2-.1-.7-.2-5.1-.2-6.3 0-1.5-.4-4-1.5-4.6-1.5-.8-1.5-3.6-1.3-5.5 0-.1 0-.2 0-.2 0-.3.1-.5.4-1 .5-.9 1.3-2.5 1.1-4-.3-1.9.3-3.8.8-5.3.1-.4.2-.8.3-1.2.2-.8 1.1-4.9 1.8-8.5-4-.9-8.1-1.8-12.2-2.8-3.7 13.9-13.2 50.3-13.7 54-.2 4.1.2 10.6.2 12z" fill="#d6d9d7"/><path d="m456.1 129.3c0-3.3-.2-6.7-.4-7.3-.5-.6-1.8-2.6-1.8-4.4 0-.8-.5-2.2-.9-3.4-.4-1.3-.7-2-.7-2.6 0-.9.5-1.3.9-1.6.3-.2.5-.4.6-.7.2-.5-.6-1.3-.9-1.4l-.3-.2v-.3c0-.4-.2-9 0-11.5.1-1.9-.7-3.5-1.4-4.7-.2-.4-.3-.7-.5-1-.5-1.2-2.8-7.4-2.9-7.7v-.1-.1s0-4.3 0-8.1c0-2.8.7-3.9 1.3-4.3-.2-1-.7-3.4-1.9-4.9-.6-.7-.9-1.9-1-3.1-22 0-55.3-.8-97-4.5l-5.9 66.8c8.2.3 84.3 5.5 112.8 5.1z" fill="#d6d9d7"/><path d="m62.1 72.8c.2 1 .4 1.9.7 2.6 1.1 2.7 2.3 3.1 3.3 3.5.5.2.9.3 1.3.7.5.4 3.9.4 6.2.4 1.7 0 3.5 0 4.9.1 3.7.3 6 2.3 6.6 3.3.7.3 3.6.2 5.4.2 3.4 0 4 0 4.2.5.2.1.8.3 1.4.4 26.9-1.1 47.3 3.6 51.2 6.5.5.4 1.1.9 1.8 1.5-.1-2.5-.3-7.5.1-11 .5-3.9 10-40.1 13.7-54.2-26.1-6-53.2-13.1-81-21.4 0 0-.4 2.4 2.5 7 2.9 4.7.2 2.2-1.3 5.9-1.4 3.7-.7 5.6.7 8.4 1.4 2.7-1.8 4.9-3.6 8.1-1.7 3.2.2 5.4-1.7 7.4-2 2-4.2 2.5-5.9 2.5s-6.4 1.7-5.9-1.2 5.2-2.7 6.4-3.7 6.7-4.2 3.1-4.7-8.2-1.7-5.8-2.9c2.5-1.2 7.1.2 7.4-2.5.2-2.7 1.8-5.9-1.6-6.1s-3.6-1.7-7.8-2.9-6.9-.2-8.8-3.4c-2-3.2-6.4-4.4-6.4-4.4s-6.9-.3-1.3 12.6c0 0 .2 3.7-1 8.7-1.1 5.1 4.8 9.5 4.8 9.5s-4.4.2-5.1 1.6 3 2.8 3 2.8-2.1 1.3-2.1 3.4-.7 4.3-.7 4.3-2.3-1.1-2.3 0 6.4.5 7.9 3.8c.9 2.1 2.6 3.9 1.9 4.2 2.5 2.9 3.2 6 3.8 8.5z" fill="#bedbd4"/><path d="m450.6 69.9.1.7h-.6c-.1.1-.8.6-.8 3.3v8c.3.8 2.4 6.4 2.9 7.6.1.2.3.5.4.9.6 1.3 1.6 3.2 1.5 5.4-.1 2.3 0 9.6 0 11.1.7.6 1.5 1.7 1 2.7-.3.6-.7 1-1 1.2-.4.3-.4.4-.4.6 0 .4.3 1.3.6 2.2.4 1.3.9 2.8.9 3.8 0 1.4 1.2 3.3 1.5 3.7.2.2.6.6.6 8.7v.6 2.8l-.3.2s-3.5 2-3.4 4.6c0 1.7 1.6 3.3 4.6 4.8l.3.2v39.4c7.2-.1 73.1-.9 81.6-1.9 0-.7 0-2.1 0-3.3s-.5-2.1-.8-2.6c-.1-.1-.1-.2-.2-.3v-.1c-1.1-3.3-1.9-3.3-1.9-3.3-3.7 0-6.5-3.9-7.3-5.1-2.1-3.1-6.2-4.9-8.4-5.9-.6-.2-1-.4-1.3-.6-.2-.1-.5-.2-.8-.4-1.8-.8-5.1-2.3-4.2-6 .5-2 .4-4.3.2-6.3-.1-1.6-.2-3 0-4.2.3-2-.1-3.5-1.1-4.1-1.6-.9-1.5-2.8-1.1-4.8.5-2.4 5.9-7.5 7.3-8.8-.7-4.9.7-8.5 2.5-11-.7.1-1.2 0-1.4-.2-.9-1.3-.4-2.2 2.1-3.2s4.9-3.4 6.4-6 7-6.4 9.7-9.7 9.9-8.6 12.8-8.6c3 0 5.1-2.1 5.1-3.3s-3.9-.9-4.5-1.9c-.6-.9-2.1-1.7-4.6-.9s-4.5 1.2-6-.6-2.8-2-4.5-.6-6.4 3.9-6.9 3.3c-.5-.5-3.6-1-4.7-2.5s-1.6-2.4-3.5-2.9-2.1-.8-3.4.9-1.1-2.3-2.9-3.2-2.9-3.3-4.1-3.3-7.5-.8-9.7 0c-2.1.8-5.3 2.2-5.9.8-.6-1.5-2.3-2.7-5.2-2.7s-4.5-.2-6.2-2.2c-1.7-2.1-1.6-6.8-3-8.6s.9-3.9-1.2-3.9-3.9-1.7-4 .8c-.2 2.5.4 4.9-1.1 5.6-.4.2-10.5.8-28.6.9.1 1 .3 1.8.7 2.4 1.7 2 2.2 5.7 2.2 5.8z" fill="#d6d9d7"/><path d="m816.3 252.5c-.3.3-.6.6-1 .8-.7.2-3.6.5-6 .6-.1 0-.1 0-.2 0-.7 0-1.3-.2-1.7-.6-.6-.6-.6-1.6-.6-2.3 0-.2 0-.5 0-.6-.4-.7-1.9-4.7-2.2-5.7-.2-.6-.3-1.6-.6-2.6-.1-.7-.3-1.5-.4-2.2-.2-.8-.5-1.2-.8-1.7-.4-.5-.7-1-.8-1.8-.2-1-1.2-6.3-1.7-8.4-.4.2-.9.3-1.4.4-1.2.1-38.3 8.1-58.1 12.3v.9c0 .4.3 1.2.5 2 .3 1.2.7 2.4.7 3.3 0 1.4.5 2.9 1.3 3.1h.1c.1-.1.1-.5.1-.7 0-.3 0-1 .6-1.2.5-.3 2.3-2.2 3.6-3.4 1.8-1.7 2.4-2.4 2.7-2.6.1-.1.3-.5.5-.7.4-.7.8-1.4 1.4-1.6.6-.1 1 .1 1.4.4.4.2.9.6 2 .8 1.5.3 1.8-.1 2.7-2.2l.1-.3c1.3-2.8 4.4-1.9 5.9-1.5 1.7.5 3.7 1.2 5.4 2.9 1 .9 1.2 1.5 1.2 2 2.2.1 3.5.4 3.8 1.1.1.2.3.5.5.7.3.4.7.8.7 1.4 0 .4.2.8.3 1 .1 0 .3.1.4.2.5.2 1.4.6 2.3.4 1.4-.3 2.2.7 2.7 1.2.1.1.2.3.3.3.1.1.3.1.5.2.9.3 1.5.6 1.7.9 0 0 .1.1.1.1.4.3 1.2.9 1.1 2.2-.1.6-.4 1.6-.8 2.6.6.5.5 1.4-.1 2.4-1.1 1.5-1.5 1.4-1.2 2.7s.5.7 2 .1c1.4-.6 1.4-2.3 1.8-.7s.3 2 1.3 2c1.1 0-1-1.9 1.2-1s1.5.5 2 1.7 2.3.1 3 .3c.8.2 1-.6 1.8.5s1.6 2.8 1.8 1.2-4.7-3.6-4.9-5.2 1.7-.2 2.1-.9.1-1.9-.6-3.3-2.3-2.1-1.9-5.5.2-5.1-.8-5.6c-1.1-.5-1.4 0-2.2-1.7s.5-1.9 1.3-2c.9 0 3.1 1.1 2.3-.8s-.5-2.5.2-2.5c.8 0 1.8 1.7 1.7-1s-.8-3.6.5-3.4 2.5-2 2.5.1.1 2.9 1 2.9 2.2-2.1 2-.1-1.7 2.3-2.9 2.3-1.5.8-1.3 2.3 1 .9 1.4 3.4-1 2.1.3 2.7 1.3 3.9 1.8 4.7-.5.9.8 1.6.3 3.3-.7 3.3-1.5 1.7-.6 2c1 .3 1.8.7 2.9.4s1.4-2.8 2.2-1.1c.7 1.8 1.8 2 2 3.8s1 .1 1.3 2.1c.2 2-1.6 2 .2 2s1.5 1.2 2-.7 1.6-.9 1.6-.9.3.3-.6 2-.4 2.1-1 2.8.2.8-.5 2.2-.2.6-.7 2.6-.6.9-.4 2.6-.1-.7-.6 2.5-.5 1.6.1 2 .5 2.1 1.1.1 1.7-1.8 2.3-3.9-.2-1.1.7-3.6.4-2.7 1.1-4.3.4.1.9-2.5c.4-2.5.7-2.6 1.5-2.7.7-.1-1.1-4.4 0-5.3s1.1.3 1.6-1.5-1.2-1.2-.1-2.7c.1-.1.2-.3.3-.4-.6 0-1.2-.1-1.5-.1-.1.2-.2.4-.3.4z" fill="#d6d9d7"/><path d="m470.1 247.3s-.1 0-.1-.1c0 0 .1 0 .1.1z" fill="#d6d9d7"/><path d="m488.8 335.1v-10.1c-31.8 1.6-135.8-4.1-144.7-4.6l-.8 9c6.6.7 51.3 3.6 51.8 3.6h.6v7.2l-1.3 24.1c0 .5.1 7.9-.1 9.3-.1.4.2.6 1 1 .4.2.8.4 1.2.7.3.2.6.6 1 1 .9.9 2 2.2 3.3 2.5 1 .3 1.8-.1 2.6-.6.5-.3.9-.5 1.5-.7 1.5-.4 2.6 1.2 3.2 2 .1.1.1.2.2.2.4.3.3.7.2 1.8 0 .4-.1 1.1-.1 1.5.2 0 .7.1 1.1.1.7 0 1.5.1 2.4.3.8.2 1.2.4 1.6.6.5.2.7.3 1.5.3 0 0 4.7-.2 5.5 1.5.1.3.4.4.6.5.3.1.6.1.9 0 .1 0 .2-.1.3-.1.9-.5 3.1-1.7 5.4-.7 2 .8 2.3 1.5 2.6 2.5.1.2.1.4.2.7.4.9 1 1.7 1.6 2 .2.1.4 0 .5 0 .2-.1.4-.3.7-.6.7-.6 1.5-1.4 2.6-1.3.8 0 1.6.6 2.5 1.5 1.2 1.4 2.4.9 3.5.5.7-.3 1.3-.5 1.8-.2.3.2.5.5.5.9 0 .3.2.4.3.4.5.2 1.5-.1 1.9-.3.1-.1.2-.3.3-.4.8-1.3 1.6-2.4 2.6-2.4.2 0 .7.1 1 .6.2.3.3.5.4.7.4.8.6 1 2.6.9s2.4-.1 3.2.7c.3.3.6.6 1.2 1 1.9 1.3 3.2 1.3 4.4 1.3h.2.2s.1-.2.1-.3c.2-.5.5-1.2 1.6-1.7 1.3-.6 2.6-.6 3.8-.5h1.6c.5-.1 1.1-.3 1.7-.6 1.3-.5 2.6-1 3.2 0 .2.3.7.7 1.3.8s1.2-.2 1.8-.8c1-1 1.9-1.4 2.8-1.4s1.5.5 1.8.8c.2.2 2 1.2 3.5 1.9 3.8 2 5.4 2.9 5.8 3.5.2.3.7.4 1 .4 0-4.8.1-37.1.1-40.5-.2-3.7-3.8-20.3-3.8-20.5z" fill="#d6d9d7"/><path d="m570.4 359.9c.1-.5.1-.5-.2-.8-.4-.3-1-.9-1-2.1 0-1.6.2-2 .5-2.8.1-.3.3-.5.4-1 .4-1.1 1.2-1.2 1.7-1.2h.3s.1-.1.1-.8c0-2.7.7-3.5 1.1-4.1.1-.2.3-.3.6-.5.6-.5 1.6-1.3 1.3-2-.3-.8-.3-1.4-.3-2-.1 0-.1 0-.2 0-3 .6-5.4.9-7.1.9-1.1 0-1.9-.1-2.3-.5-.3-.2-.5-.5-.5-.8-.1-1.3.5-2.6.9-3.3.5-.8 1.2-1.8 2-2 .4-.1.7-.1 1-.1h.3c0-.1.1-.3.1-1 0-.6-.1-2.4-.8-3.2-.3-.3-.7-.4-1.1-.4-2.6.1-69.2 3-77 3.3.7 3.3 3.5 16.6 3.5 19.9s-.1 35.6-.1 40.5c.2 0 .5.1.7.3s.4.4.5.8h6.8v12l52-.9c-.1-.8-.1-2.3.5-3.3.6-1.1-.5-3.7-1.1-4.9-.2-.5-.4-.7-.6-.9-.5-.5-.6-.9-.6-2.3 0-1.6 1.2-3.3 2.1-4.5.3-.4.7-.9.7-1.1 0-.1 0-.3 0-.5-.1-1.6-.1-3.1.5-3.8.2-.2.5-.4.8-.4.5-.3.9-2.7 1-3.6.1-.5.2-.9.2-1.2.4-1.7 1.7-2.6 3.1-3.4 1-.6 1.2-.9 1.7-2s1.4-4 1.4-5.5c0-.3 0-.6 0-.9-.1-1.1-.1-2 1.1-3 1.1-.9 1.8-.8 2.3-.7h.2c.1-.2.1-.6.2-.9.1-.7.2-1.4.5-2.1.3-.8.9-1.2 1.5-1.6.6-.5 1.1-.9 1.3-1.6z" fill="#d6d9d7"/><path d="m360.4 319.9 4.6-86.1-30.8-2-.6-.1c-3-.3-71.4-7.2-81.4-9.3l-11.9 84.7 103.2 11.9c.5.1 6.9.4 16.9.9z" fill="#bedbd4"/><path d="m82.2 165.5-16.5 62.6 69.1 103.6c.3-.5.6-1.1.9-1.9.1-.2 1.1-3.8.8-11.7-.3-8.1 1.1-9.1 1.8-9.6 0 0 .1 0 .1-.1 1-.8 3.9.4 3.9.4l.2.1c.6.3 1.7.8 2.3.8.8-.1 1.1.7 1.2 1.2.2.7.4 1 .9 1 .6.1.7-.1.9-.5.1-.3.3-.7.8-.9.2-.1 2.2-1.1 2-3.5-.1-1.5.3-2.6.7-3.5.3-.7.5-1.3.5-2-.1-1.1.4-2 .7-2.8.3-.6.6-1.2.5-1.7-.2-1-.1-1.8 0-2.4 0-.3.1-.6.1-.9 0-.9 16.6-80.8 21.9-106.3z" fill="#bedbd4"/><path d="m680.9 319h-.2l-74.6 6.2h-1.6v1.7c1.6 1 1.5 1.6 1.5 1.8s-.1.6-.7.7c-1 .3-20.4 1.5-25.1 1.7-.6.8-1.1 1.6-1.2 1.9 0 0 0-.1 0-.2 0 .3-.9 2.6-1.4 3.7.7.2 1.6.6 1.8 1.3.1.3.1.6-.1 1.1-.1.1-1.7 2.8-2.9 3.4-.1.3-.2 1 .1 1.8.6 1.5-.9 2.8-1.7 3.5-.2.1-.4.3-.4.4-.4.4-.8 1-.8 3.2 0 1.6-.6 2-1.5 2.1-.4 0-.5.1-.6.4-.2.4-.3.8-.5 1-.3.7-.4.9-.4 2.2 0 .7.2.9.5 1.2.4.3 1 .9.6 2.1-.3 1.1-1.1 1.7-1.8 2.2-.1.1-.2.1-.2.2l34.9-1.7c0-.2 0-.4.1-.6.1-.4.4-.6.8-.7 1-.3 38.2-2.7 45.7-3.2l21.6-3.1v-1.6c0-1.3.8-3.4 1.3-4s2.5-1.2 3-1.3c.2-.3.7-1.4.7-2.8 0-1.6 1.1-2 1.8-2.3.3-.1.6-.2.7-.4.7-1.2 3.2-1.9 3.9-1.9.3 0 1.9-.5 3.2-1 1.2-1.1 4.5-4.1 5.4-4.5.3-.1.6-.1.9-.2.9-.2 1.5-.3 1.6-.7.2-1.2.6-1.8 1.1-2.7l.2-.3c.2-.3 1.6-2.9 3.4-3.2 1-.1 1.7.7 2.1 1.2.1.1.2.3.3.4.2-.1 1-.6 1.2-1.9.4-2.1 2.1-2.1 3.8-2.1h1c1.2 0 1.3 0 2.2-2.4.8-2.1 2.1-2.7 3-3 .6-.2.6-.3.6-.4 0-1 .3-3.4.4-4.7z" fill="#d6d9d7"/><path d="m219.3 217.1 2.4-20.7-45.6-8.7c-7 33.8-19.7 95-21.6 104.8l84.4 14.4 11.9-84.7z" fill="#bedbd4"/><path d="m861.3 168.9c-.1-.4-.1-.8-.1-1.5v-.1c-.1 0-.1-.1-.2-.2-.5-.4-1.2-1-1.2-1.9 0-.1 0-.1 0-.1s-.1-.1-.1-.1c-.3-.2-.7-.5-.8-1.4-.1-.6-.2-.7-.5-1-.1-.1-.2-.2-.4-.3-.4-.2-2 0-2.4.5-.5.6-1.6 1-2.3 1.2l3.7 13.4c2.1-1.1 3.8-2.3 4.4-3.5.6-1.3 1.3-2.4 1.9-3.5-1.8-1.1-1.9-1.4-2-1.5z" fill="#d6d9d7"/><path d="m252.3 221.2c9 2 73.6 8.6 80.7 9.3l7.2-84.9c-14.3-.7-97.4-12.1-105.8-13.2-.1 1.2-.6 2.5-.8 2.8-.4 4.6-1 6.1-1.6 6.6-3.3 25.9-8.8 53.3-9 54.2l-2.4 20z" fill="#d6d9d7"/><path d="m859.6 144.2c-.2 1-1 1.6-1.8 2.1-.5.3-.9.6-1.1 1-.6 1.2-2.1 1.1-3.5 1.1-.3 0-.7 0-1 0-.5 0-1.1.3-1.7.7-.7.4-1.5.9-2.6 1.1-1.8.2-10.9 1.3-11 1.3-.6.1-6.9 1.8-11.1 3v.1 14c.1.1.2.2.3.3l26.4-5.8c.7-.2 1.7-.5 2-.9.5-.7 1.7-1 2.6-1 .7 0 1.3.1 1.6.4.1.1.2.2.3.3.4.3.9.7 1 1.8 0 .3.1.3.3.5s.7.5.7 1.2c0 .2.5.7.8.9.4.3.7.5.7.9v.4c0 .2-.1.6 0 .8.2.2.9.7 1.6 1.3 1.2-1.6 2.4-2.6 3.4-2.7 1.7-.3 2.1-3.7 3.7-2.3s.3 4.5 1.7 4.5 2-3.4 4.5-3.8 2.8-1.8 5.5-3c2.7-1.1 4.1-3.2 2.3-3.2s-5.9.8-8.3 1.4-2.3 1.6-3.8 1.3c-1.6-.3-1.6-1.6-3.1-3.5-1.6-2-.3-4.8-2.7-4.4s-4.7 1.1-3.7-2.4 4.8-2.3 4.7-5.2c-.1-3-4.1-1-5.2-3.1-.3-.5-.4-1.2-.4-1.9-.9.3-1.6.6-1.9.8-1 .6-1 .8-1.2 2z" fill="#d6d9d7"/><path d="m841.1 93.6c-.4.2-.8.4-1.2.6.5 2.5 1 6 1 7.1-.1 1.1-.3 1.8-.4 2.5-.1.4-.2.7-.3 1.2-.1.3.1.5.6 1 .4.4.9 1 1 1.8.2 1.2.4 2.8-1.1 3.7-.7.4-1.8 1.7-3.1 3.9-.3.4-.5.7-.6 1-.4.6-.5.7-.4 1.7.1.6.3.8.5 1.1.4.4.8 1 .8 2.2 0 1.5-.1 2-.4 2.9-.1.2-.1.5-.2.8-.4 1.5-.6 2.5-.7 3.7-.1.6-.3 1-.5 1.2-.2.3-.5.6-.5 1.9v.9c0 1.7 0 2.4.5 3.6.1.3.2.5.3.6.3.7.3.8.3 2v1c0 .9 0 1.6-.1 2.2-.1 1.2-.1 1.7.3 2.2.4.6.5 1 .1 1.5-.1.2-.3.4-.3 1.6 0 1.5.4 2.3.7 2.5 1.6-.2 9.1-1.1 10.7-1.3.8-.1 1.4-.5 2.1-.9s1.5-.9 2.4-.9h1c.9.1 2 .1 2.2-.3.3-.6.9-1.1 1.5-1.5s1.2-.8 1.2-1.2v-.1c.2-1.3.3-1.9 1.6-2.8.5-.4 1.6-.8 2.7-1.1.1-1.6.2-3-1.2-3-1.8 0-2.8-1.8-2.6-2.5l-15.3-42.3c-.8.5-1.7 1-2.6 1.5z" fill="#d6d9d7"/><path d="m740 244c-.3-.9-.5-1.7-.5-2.2 0-.4 0-.8 0-1-1.5-.2-3-.2-3.3.1-.2.3-.6.8-5.8 1.5-2.5.3-5.2.6-5.6.6h-.1c-.6 0-1.7 0-2.4-.7-.5-.5-.8-1.3-.8-2.3 0-1.6-.2-3.2-.4-4.4-.1-.8-.2-1.3-.2-1.7s-.4-3.1-.9-6l-1.4 16.5-.1.1s-1.4 2.2-2.8 4.4c-3 4.4-3.6 4.6-4.2 4.4-.1 0-.2-.1-.4-.1-.9-.4-1.8-.7-2.5 1-.7 1.5-1.6 2.1-2.2 2.5-.5.3-.7.4-.8.8-.1.5.1 1.3.2 2 .3 1.2.7 2.7-.5 3.4-.7.4-1.6.4-2.3.5-.9 0-1.5.1-1.7.4-.3.5-.4 1.6-.6 3.1-.2 1.3-.3 3-.8 5-.9 4.1-2.2 4.5-3.2 4.5-.2 0-.9.3-1.5.5v5.8l10 11.3 1.2 1 7.2 4.3c.4 0 1.9-.2 3.5-2 2-2.2 3.4-1.1 4.1-.5.1.1.3.2.4.3.2-.1.8-.5 1.3-.8.9-.7 2-1.5 3.2-1.8.8-.2 1.3-.7 1.8-1.2.6-.6 1.2-1.2 2.2-1.3s1.7-.3 2.4-.6c.4-.1.8-.3 1.2-.4.3-.4.4-2 .5-3.1.2-2 .4-3.9 1.1-4.8 1.5-1.8 4.3-7.4 3.9-8.5-.6-1.8 1.6-8.6 2.1-9.1.5-.6 1.5-.4 4.7 1.3.1.1.2.1.3.2.3.2 1.3.2 1.9-.2.4-.2.5-.5.5-.9 0-1.1.5-2.1 1.1-3.1.5-.9.9-1.7.9-2.3 0-2.4 3.9-5.3 4.3-5.6.1-.1.2-.2.3-.2 1.4-1 3.6-2.5 3.6-4.3 0-1.3.3-2.3.5-3.1s.4-1.4.4-2.2v-2.5c-.1-.4.1-.8.4-1 .6-.3 1.2 0 2.6 1.4 2 2 4.4 3 5.4 3.3.1 0 .1.1.2.1.3.1.5.3.8.5.1-.4.3-.9.4-1.5.2-.7.6-1.8.5-2.1-.1-.4-.1-.6-.1-.9s0-.6-.9-1.5c-1.5-1.4-3.3-2.1-4.9-2.5-1.9-.5-3.6-.9-4.4.8l-.1.3c-.9 2.1-1.5 3.4-4.1 2.9-1.3-.3-2-.7-2.4-1-.2-.1-.3-.2-.4-.2-.2.1-.5.7-.6 1-.3.5-.5 1-.9 1.2-.2.2-1.5 1.4-2.5 2.4-2.5 2.4-3.4 3.3-3.8 3.6v.1c0 .5-.1 1.2-.6 1.7-.2.2-.6.3-1.1.2-1.6-.3-2.4-2.4-2.4-4.3-.2-.9-.6-2.1-.9-3.1z" fill="#d6d9d7"/><path d="m826.9 170c.2.5.4 1 .4 1.5 0 1 .6 3.8.9 5.7.2.8.3 1.5.3 1.9 0 .3.1.7.1 1.2.1 1.5.3 3.7 1.1 4.8 1.3 1.8.2 3.3-.4 4.2-.1.1-.1.2-.2.3-.1.3.1 1 .5 2 3.9-2.9 11.6-8.3 13.4-8.9 1.5-.5 8-2.3 12.9-4.6l-3.8-13.6z" fill="#d6d9d7"/><path d="m828 188.9c.1-.1.2-.2.2-.3.7-1 1.1-1.7.4-2.7-1-1.4-1.2-3.8-1.3-5.5 0-.5-.1-.9-.1-1.1-.1-.3-.2-1-.3-1.8-.4-2-.9-4.8-.9-5.9 0-1.2-1.1-2.3-1.1-2.3l-.2-.2v-14.5c0-.8-.1-.9-.2-1.1-.3-.4-.6-.9-.6-2.5 0-1.7-.4-2.5-.8-3.3-.2-.5-.5-.9-.6-1.5-.1-.4-.1-.9-.2-1.3-.1-1.1-.2-2.1-.8-3-.7-1-.7-2.3-.6-3.3 0-.4 0-.9 0-1.1-.2-.1-.7-.2-1.1-.2-.9-.1-1.8-.2-2.3-.9s-.3-1.7-.2-2.8c.1-.8.3-1.7.1-2.4-.2-.8-.6-1.4-1.1-2.1s-1-1.4-1.1-2.3c0-.4 0-.9.1-1.7.2-2.1.4-5.7-1.1-7.7-1.6-2.1-2.6-7.6-3-10.9-7.1 1.8-14.1 4.1-19.4 5.4-8.4 2.1-20.1 20.5-17 23.6s1.7 5.2.5 5.5-1.9-1.6-1.2 1.9c.7 3.6 1.1 3.2 1.1 5.9s-1.9.4-3.3 1.6c-1.4 1.3-.6 2.4-2.9 2.2-2.3-.1-3 4.2-6.6 5.4-3.6 1.3-22.9-1.1-28.7 4.6 0 0-.6 3 .1 4.5s1.4 1.9 2.6 2.4c1.2.6 3.1 1.8 2.1 2.3s-5.5 10.7-10.2 12.3c-.5.2-.9.4-1.4.6l.8 6.3 68.5-13.7h.1c.2 0 4.3.3 5.6 2.7 1 1.9 2.6 4.9 2.9 5.5.5.3 2.4 1.4 4.4 1.7.6.1 1.2.2 1.5.6 1.6.6 10.6 3.7 13.3 4.3 1.2.2 2.1 1 2.7 2 .1-.4.3-.9.5-1.2.1-.1.5-.5 1.1-1-.3-.9-.7-2.3-.3-3z" fill="#d6d9d7"/><path d="m693.6 283v-6c-.5-.1-1.2-.5-2-1.6-.4-.6-.9-.6-1.7-.6s-1.9 0-2.3-1.4c-.3-1.3-.7-1.8-1-1.9-.1-.1-.3-.1-.6 0-.4.1-1 .6-1.5 1.1-1.1.9-2.3 1.8-3.3 1.6-.7-.1-1.5-.1-2.4-.1-.7 0-1.6 0-2.6-.1s-1.2.1-1.4.2c-.4.2-.7.4-1.6.4-1.5 0-2-.6-2.5-1.2-.2-.2-.5-.5-.8-.8-.4-.3-.7-.2-1.4.2-.5.3-1.1.6-1.7.6-1.7 0-3.7-3-4-4 0-.1-.1-.3-.1-.5-.1-.8-.4-2.2-1.2-2.5-.4-.2-.9-.1-1.6.3-2.5 1.3-4.6.8-5.6.3-.1.1-.1.2-.2.3-.5.7-1 1.3.3 2.6.2.1.9.8.9 1.7 0 .4-.1 1-.7 1.5s-1.2.9-1.7 1.3c-.6.4-1.1.7-1.3 1.1-.4.8-1.5 1.5-2.3 1.7-.6.2-1 .2-1.3 0s-.4-.4-.6-.6c-.3-.4-.5-.6-1-.5-.4.1-.8.3-1.1.7s-.4.8-.3 1.2c0 .2.1.5.2.7.3.8.6 1.8-.7 3.2-.5.6-1.1 1-1.6 1.3-.7.5-1.2.8-1.4 1.7-.3 1.6-.9 4.2-2.7 4.3-.2 0-.4 0-.5 0v.7.8c0 1.4-.3 2.2-.9 2.7-.7.6-1.8.5-3.2.2-1.5-.3-2-.8-2.3-1.4-.2-.2-.3-.4-.6-.5-.4-.2-.8-.4-1.1-.6-.1-.1-.2-.1-.3-.2v.1c-.4 1.2-1.2 3.1-2.2 4.9-.6 1.1-1.4 1.8-2.2 1.8-.6 0-1.1-.3-1.4-.8-.8-1.2-1.2-1.3-1.5-1.3-.6 0-1.5.4-3.1 3.1-.8 1.4-1.4 1.9-2 1.9-.7 0-1-.7-1.2-1.3-.1-.2-.2-.4-.3-.6-.5-.9-2-1.7-3-1.6-1.2.1-1.2.2-1.7.8-.1.2-.3.4-.4.7-.4.8-1 2.1-2.4 1.6-.4-.2-.7-.3-.9-.4-.3-.2-.4-.2-1.4-.3-1.3 0-1.9 1.1-2 1.5 0 .3-.2.5-.4.7-.3.2-.8.3-1.3.3-.2 0-.4 0-.6 0v.1c-.3.8-.7 1.7-.6 2.2.1.3.2.6.3.9.3.7.6 1.4-.1 2.6-.5.9-1.1 1-1.5.9-.2 0-.2 0-.4.3-.6.9-1.5 1-2.2 1.1-.5.1-.8.1-1 .3-.4.4-.4.5-.2 1.4.1.3.1.6.2 1 .1.8.4 1.2.7 1.6.2.3.4.5.5.9.1.5 0 1-.4 1.5-.5.7-1.3 1.1-2.2 1.1-.8 0-1.1-.1-1.5-.4-.1-.1-.2-.1-.4-.2s-.4-.1-.7-.1c-.8-.1-2-.3-2.4-1.5-.2-.5-1.5-.7-3.1-.4-.5.1-1.7 1.8-2.7 3.7.2.1.4.3.6.4 1 .2 1.4 1 1.2 2.3-.2 1.2-.5 1.8-.7 2.2-.1.3-.2.3-.2.5 0 1-1.9 5-3.3 5.2-.1 0-.3.2-.5.4 8.6-.5 20.1-1.2 23-1.5-.2-.2-.5-.3-.7-.5l-.3-.2v-3.7h2.8l74.4-6.1 24.4-22.4-.8-.7z" fill="#d6d9d7"/><path d="m488.9 323.7v-45.4c0-.4-.1-.5-.1-.5h-.1-.1c-3.2-.5-4-2.6-4.2-3.3-.8-.6-3.4-3-3.7-5.6-.1-1.1.3-2.2 1.1-3.1 1.8-1.9 1.8-3.1 1.6-3.8-.6.5-1.6 1.2-2.6 1-.5-.1-1.1-.4-1.5-1.4-.8-1.8-1.9-1.4-2.1-1.3h-.1-.1c-21 .8-103.7-3.9-111.8-4.3l-3.4 64.1c33 1.6 102.4 4.8 127.1 3.6z" fill="#bedbd4"/><path d="m456.3 184c.1.2.2.3.4.4.3.3.8.6.8 1.5v.8 1.5c0 .4.1.6.4.9.4.5.9 1.3.7 2.9-.1 1.2-.5 1.7-.8 2.1s-.6.9-.7 2.6c-.1 1.9-.3 2.5-.6 2.9-.1.1-.1.2-.1.7 0 .6.2.7.5.9.5.3 1.1.7 1.4 2.1.1.4.2.9.1 1.3.5.7 1.5 2.3 1.5 4.8 0 1.5 1.1 2.9 2.1 4.1.9 1.1 1.6 2 1.7 3 0 .8.2 1.8.4 2.8.2 1.4.5 2.8.5 4 0 1.7.5 2.9 1.1 2.9.9 0 1.4 1 1.8 3.4.2 1.3.3 2.6.3 2.9.2 1.3 1.3 7.2 1 8.6-.2.8.9 3.3 1.5 4.5 22.7-.4 56.3-1.1 60.1-1.5.2-.5.8-.7 1.1-.8.1 0 2.3-.5 4-.1 1.8.4 4.4 4.2 4.9 5 .1.1.5.1.7.1 0-2.4.3-4 .8-4.7.4-.6 1.1-.7 1.7-.9.9-.2 1.3-.4 1.4-1.2.2-1.5 1.2-4.8 2.1-5.2.4-.3 1.4-1.8 1.4-2.2 0-.8-.1-1.6-1.6-2-1.9-.6-2.4-2.1-2.4-2.8v-.1c.5-3.8 4.8-4.8 6.6-5.2.3-.1.6-.1.7-.2.5-.2 1-.6 1.8-1.1.4-.3.9-.6 1.5-1 1-.6 1-.9 1.1-1.6 0-.3.1-.7.2-1.1.2-.8.9-1.4 1.5-1.9.8-.7 1.6-1.4 1.9-2.8.5-2.2-1.7-4.1-2-4.3-4.7-3.2-6.2-6.3-7.1-8.4-.8-1.8-1.2-2.6-3-2.7-4.2-.1-4.6-1.5-4.8-3.5 0-.2 0-.5-.1-.7-.1-.7-.5-1.2-.9-1.8-.5-.7-1.2-1.4-1.2-2.7s.5-2.2 1-3c.3-.5.6-1 .7-1.6.1-.9-1.1-1.5-1.6-1.8-.2-.1-.3-.2-.4-.2-.1-.1-.4-.3-.5-1.8-9.7 1-74 1.8-81.5 1.9h-2.4c.2.1.3.2.3.3z" fill="#d6d9d7"/><path d="m907 82.6c-3.9-2.5-2.1-5.2-3.9-5.2s-5-.4-5.2-.9-.9-.6-1.3-2.6.2-3.7-2.1-4c-2.4-.3-4.1-1.6-4.6-2.9s-3.9-22.6-13.1-29.7-5.3 11.2-17.1.9c0 0-2.8-1.2-3.3 4.9s-3.4 10.7-3.8 10.7-2 .5-1.8 4.4.9 5 .2 7c-.8 1.9-1.1 1.7-.7 4.7s2.4 4.4 1.2 7.8.4 5.3-1.8 5.7c-1.9.4-.2 4.1-4.9 8l15.4 42.8c.4 0 .7 0 1.5.6 1.3 1 3.1 1 2.8-2.8s2-7.8 2.7-8.6.1 1.3.8-3.1 2.8-1.6 2.7-4.8-.7-4.4-.1-4.4 2.1-1.6 2.3 0c.1 1.6 1.8-1.7 1.8.8s.6 3.2 1.6 2.5-.8-4.1.6-4.1 1.1.8 3 .7c1.8-.1 1-3.9 1-3.9s1.6-6.1 1.8-8.2c.3-2.1-.6-2.3-.8-3.9-.3-1.7 1.4-1.3 2.3.7.8 2-.6 5.1.8 5.1s3 4.5 3-.6 1.3-3.1 2.4-3.1.3-2.8 2.4-1.4 4.2 3.7 4.2.8-.1-3 1.6-3.9c1.7-1 4.4-2.4 4.1-3s.3-2.7 2.1-3.2 6.1-1.3 2.2-3.8z" fill="#d6d9d7"/><path d="m539.4 248.7c-.5-.8-2.9-4-4-4.2-1.4-.3-3.4.1-3.4.1-.1 0-.2.1-.2.1 0 .6-.6.7-1.3.7-.4 0-1.1.1-2 .1-1.6.1-3.9.2-6.9.3-5.1.2-12.1.3-21 .5-12.7.3-25.6.5-29.4.6.1.5.2 1.3.3 2.6 0 .3 0 .7.1.8s.3.3.5.5c1.3 1.3 4.2 4.1 4.3 8.2h.4c.5-.2 2.5-.5 3.6 2 .2.5.5.6.6.6.6.1 1.7-.7 2.1-1.1l.4-.4.5.4c.1.1.7.7.8 1.9.1 1.3-.6 2.7-2 4.2-.6.6-.8 1.3-.8 2.1.2 2.4 3.3 4.8 3.4 4.9l.2.2v.3c0 .1.3 2 3.1 2.5.3 0 .7 0 1 .2.4.3.6.8.6 1.5v46h-.3v10c7.4-.3 74.4-3.3 77.1-3.3.8 0 1.5.3 2 .8 1.2 1.3 1.2 3.7 1.2 4.1.1 1-.1 1.6-.4 2-.4.4-.9.3-1.3.3-.2 0-.4 0-.5 0-.5.2-2.2 2.3-2 3.9.1.1.7.4 3.4.1 1.8-.2 3.8-.6 5.1-.8.7-.1 1-.2 1.2-.2.4-.2 1.6-1.7 2.4-3v-.1c-.1-.2-.8-.4-1.1-.5-.5-.2-.8-.3-.9-.6-.1-.2-.1-.4 0-.6.1-.3 1.4-3.4 1.5-3.8v.1c0-.4 1.1-1.9 1.4-2.4 1.3-1.9 2-2.2 2.4-2.3.2-.1.7-.6 1.4-1.8.6-1.1.9-2 .9-2.1 0-.5.2-.9.4-1.2s.4-.7.6-1.7c.1-.9-.1-.9-.3-.9-.4-.1-.5-.2-.6-.4-.2-.2-1.1-.6-2.4-.8-2.1-.3-3.5-2.5-4-3.8-.3-.9.1-1.7.5-2.4s.7-1.4.7-2.2c0-1.4-1.6-1.7-1.7-1.8l-.4-.1-.6-3.6c-2.5-.3-2.9-1.7-3.1-2.6-.2-.7-.2-.7-.5-.7-2.3 0-10.9-5.1-11.3-8.4-.2-1.9.6-3.8 1.3-5.4.4-.9.7-1.7.9-2.3.2-.8.4-1.7.7-2.6.2-.7.5-1.7.6-2.2-.4-.1-.7-.3-.9-.9-.1-.1-.4-.3-.6-.4s-.5-.3-.6-.4c-.5-.1-2.1-.2-3.4-.1-.2 0-.2 0-.4.3-.3.5-.7 1.1-1.9 1.1-2.5 0-2.5-1.8-2.5-3.1 0-2.3-.4-4.3-.8-4.8-.2-.2-1-.9-2.1-1.9-6.4-5.6-8.3-7.5-8.5-8.2-.1-.4-.3-.9-.7-1.7-.4-1-1.1-2.3-1.9-4.3-1.5-3.2-1.1-7-.9-7.9z" fill="#d6d9d7"/><path d="m466.6 232.8c-.2-2.4-.6-4.7-1-5.2-1.4-.1-2.2-1.7-2.2-4.2 0-1.1-.2-2.5-.5-3.8-.2-1.1-.4-2.1-.4-3 0-.6-.7-1.4-1.4-2.2-1.1-1.3-2.4-2.9-2.4-4.9s-.8-3.4-1.2-4c-.4 0-.9-.3-1.2-.5-.1 0-.1-.1-.2-.1-.5-.3-2.1-1.4-2.2-2.5-.1-.4-1.5-1.7-2-1.9-.1 0-.4-.1-.6-.2-.8-.2-2-.4-2.9-1.2-1-.9-2.9-1.5-3.8-1.5s-7.3 0-9.3 0c-.1.3-.2.7-.4 1-.2.2-.6.3-.9.3h-.1c-1-.1-1.9-.2-2.3-.9-.1-.2-.5-.5-.9-.6-.5-.1-1-.4-1.4-.7-.2-.2-.5-.4-.7-.5-.4-.1-.7-.3-1.1-.6-.3-.2-.7-.4-.9-.5-.5-.2-.7-.6-.9-.9 0-.1-.1-.2-.1-.2-1.2 0-76.4-4-87.8-4.6l-3.5 41.1 32 2.1v.6l-1.1 21.4c7.8.4 86.5 4.9 109.9 4.4-.1-3.6-2.7-6.1-3.9-7.4-.5-.5-.7-.7-.8-1 0-.2-.1-.5-.1-1.1s-.1-2.1-.3-2.4c-.9-.8-2.6-4.9-2.3-6.3.2-.8-.6-5.3-1.1-8z" fill="#d6d9d7"/><path d="m425.5 192.9c.9 0 1.2.6 1.3 1 0 .1.1.2.1.2.4.1.8.3 1.1.6.3.2.6.4.9.5.4.1.7.4 1 .7.2.2.6.5.7.5.7.1 1.5.6 1.8 1.2.2.1 1 .2 1.4.3h.1c0-.1.1-.4.1-.6v-.7h.7 9.9c1.2 0 3.3.7 4.6 1.8.7.6 1.6.8 2.3.9.4.1.7.1 1 .3.5.2 2.6 1.8 2.7 3 0 .3.9 1.2 1.5 1.5.1 0 .2.1.3.1s.2.1.3.2c0-.1 0-.3-.1-.5-.2-.9-.5-1.1-.9-1.4-.5-.4-1-.7-1.1-1.8-.1-.9.1-1.2.3-1.6.1-.2.3-.4.4-2.1.1-2.1.5-2.7.9-3.3.3-.4.5-.7.6-1.5.1-1.1-.1-1.5-.5-2-.3-.4-.6-.9-.6-1.7s0-1.1 0-1.5c0-.2 0-.5 0-.9 0-.2-.1-.3-.3-.5s-.5-.4-.7-.8c-.5-.9-.1-1.8 0-1.9l.2-.3h2v-38.7c-3.2-1.7-4.9-3.6-5-5.7-.1-2.8 2.8-4.9 3.7-5.5v-2c-1.1 0-2.4 0-3.6 0-31 0-101.6-4.8-109.2-5.4l-1.8 19.9-3.7 43.2c8 .3 86.4 4.4 87.6 4.5z" fill="#d6d9d7"/><path d="m824 193.8c-2.7-.5-11-3.4-13.2-4.2-.1.2-.3.4-.5.6-.4.5-.8 1-.9 1.5s-.1 1-.1 1.4c0 .9 0 2-1.2 2.5-1 .4-1.6 1.1-1.7 1.9-.1.4.1.7.4 1.1.2.4.5.8.6 1.5.2.9 0 1.3-.3 1.8-.2.4-.4.8-.4 1.6 0 .7-.2 1.2-.3 1.5-.2.7-.2.7.7 1.1.5.2.8.4 1 .5.7.3.8.4 1.4 1.4.1.1.2.3.3.5.6 1 1.1 1.2 1.6 1.4.4.2.8.3 1.2.7.2.2.5.5.8.7.9.7 1.8 1.5 2.1 2.6.2 1.1-.9 2.5-2.9 4.4-.2.2-.4.4-.5.5-.4.5-1.4 1.8-2.3 2.9s-1.8 2.3-4 2.4c-1.8.1-3.2.7-3.6 1.5-.2.6-.5 1.1-.9 1.4.3 1.6 1.6 7.8 1.8 8.9.1.5.3.8.6 1.3.4.5.8 1.2 1.1 2.2.1.7.3 1.4.4 2.2.2 1 .4 2 .5 2.6.2.9 1.8 4.8 2.1 5.4.2.3.2.7.2 1.2s0 1.1.2 1.4c.2.2.6.2.9.2 2.6-.1 5.2-.4 5.8-.5.1 0 .3-.2.4-.4.3-.3.7-.8 1.4-.7.2 0 1 .1 1.8.2.1-.7-.2-1.3-.8-2-.9-1.2.6-3.3-1.7-4s-2-1.6-3.1-2.5-2-1.1-2.3-2.5c-.2-1.5-1.5-.5-2-1.8-.6-1.3-.9-2-1.8-3.6s-3.3-3.3-3.3-4c.1-.7-.2-2.4.2-3.1s.9.4 1.3-.8 1.5-2.8 1.5-1.2-.5 2-.1 3.6.5 3 1.5 3c.9 0 .7.9 1.9.9s1.2.2 2.1 1.1-.4 1.4 1 1.4 2.5-1.7 3.6 0 2.3-.1 2.4 1.7 1.7 2.8 1.8 1.5-.9-3.4.4-3.9c1.4-.5.7-4.5 1.9-4.9s-.3-3.4 1.2-4.1 3-4.9 2.5-6.3c-.5-1.5-.6-10-.6-10.7s-3.8-1.3-4.4-2.9c-.7-1.6.2-1.8.2-3.2s0-1.6.8-2.1 1.3.5 1.3-1 0-1.8.8-2.1c.9-.3.7-1 1.3-1.2 0 0 .1 0 .1-.1-.3-1.2-1-2.1-2.2-2.4z" fill="#d6d9d7"/></g></svg>